<svg data-v-fde0c5aa="" xmlns="http://www.w3.org/2000/svg" viewBox="0 0 300 300" class="iconAbove"><!----><defs data-v-fde0c5aa=""><!----></defs><rect data-v-fde0c5aa="" fill="transparent" x="0" y="0" width="300px" height="300px" class="logo-background-square"></rect><defs data-v-fde0c5aa=""><!----></defs><g data-v-fde0c5aa="" id="68e499f8-93c3-4a51-82b6-835c2d62d74a" fill="#000000" transform="matrix(2.5945512681421756,0,0,2.5945512681421756,18.65083339005318,166.27771771752225)"><path d="M4.24 5.15Q6.44 5.15 7.46 6.24Q8.48 7.32 8.48 9.25L8.48 9.25Q8.48 11.24 7.50 12.48Q6.52 13.72 4.48 13.72L4.48 13.72L0.52 13.72L0.52 13.20L1.76 12.91L1.76 5.96L0.52 5.67L0.52 5.15L4.24 5.15ZM4.14 5.88Q3.57 5.88 3.15 5.96L3.15 5.96L3.15 12.87Q3.42 12.95 3.84 13.01Q4.26 13.08 4.62 13.08L4.62 13.08Q5.98 13.08 6.49 11.96Q7 10.85 7 9.25L7 9.25Q7 7.71 6.24 6.80Q5.49 5.88 4.14 5.88L4.14 5.88ZM12.26 7.56Q11.61 7.56 10.99 7.76L10.99 7.76L10.67 8.95L10.12 8.95L9.88 7.22Q11.28 6.71 12.59 6.71L12.59 6.71Q13.65 6.71 14.21 7.06Q14.77 7.42 14.77 8.30L14.77 8.30L14.77 12.80L15.97 13.09L15.97 13.55Q15.19 13.78 14.48 13.78L14.48 13.78Q14.08 13.78 13.79 13.58Q13.50 13.38 13.41 13.02L13.41 13.02Q12.84 13.44 12.28 13.66Q11.72 13.87 11.10 13.87L11.10 13.87Q10.37 13.87 9.96 13.37Q9.55 12.87 9.55 12.15L9.55 12.15Q9.55 11.48 9.93 10.92Q10.32 10.36 11.33 10.18L11.33 10.18L13.38 9.80L13.38 8.68Q13.38 8.11 13.14 7.83Q12.89 7.56 12.26 7.56L12.26 7.56ZM12.11 10.70Q10.96 10.92 10.96 11.94L10.96 11.94Q10.96 12.92 11.90 12.92L11.90 12.92Q12.50 12.92 13.38 12.45L13.38 12.45L13.38 10.47L12.11 10.70ZM21.43 13.06Q20.90 13.45 20.34 13.66Q19.78 13.86 19.11 13.86L19.11 13.86Q18.33 13.86 17.77 13.38Q17.22 12.89 16.95 12.09Q16.67 11.28 16.67 10.32L16.67 10.32Q16.67 8.62 17.50 7.67Q18.33 6.71 19.80 6.71L19.80 6.71Q20.16 6.71 20.52 6.78Q20.87 6.85 21.13 6.93Q21.38 7.01 21.39 7.04L21.39 7.04L21.39 4.63L20.19 4.49L20.19 4.06L22.33 3.53L22.78 3.53L22.78 12.80L23.98 13.09L23.98 13.55Q23.21 13.78 22.47 13.78L22.47 13.78Q22.12 13.78 21.81 13.58Q21.50 13.38 21.43 13.06L21.43 13.06ZM19.77 12.95Q20.22 12.95 20.66 12.78Q21.10 12.61 21.39 12.42L21.39 12.42L21.39 7.87Q20.76 7.46 19.96 7.46L19.96 7.46Q19.10 7.46 18.64 8.21Q18.19 8.96 18.19 10.28L18.19 10.28Q18.19 11.51 18.58 12.23Q18.97 12.95 19.77 12.95L19.77 12.95ZM27.37 7.56Q26.71 7.56 26.10 7.76L26.10 7.76L25.77 8.95L25.23 8.95L24.99 7.22Q26.39 6.71 27.69 6.71L27.69 6.71Q28.76 6.71 29.32 7.06Q29.88 7.42 29.88 8.30L29.88 8.30L29.88 12.80L31.08 13.09L31.08 13.55Q30.30 13.78 29.58 13.78L29.58 13.78Q29.19 13.78 28.90 13.58Q28.60 13.38 28.52 13.02L28.52 13.02Q27.94 13.44 27.38 13.66Q26.82 13.87 26.21 13.87L26.21 13.87Q25.48 13.87 25.07 13.37Q24.65 12.87 24.65 12.15L24.65 12.15Q24.65 11.48 25.04 10.92Q25.42 10.36 26.43 10.18L26.43 10.18L28.49 9.80L28.49 8.68Q28.49 8.11 28.25 7.83Q28 7.56 27.37 7.56L27.37 7.56ZM27.22 10.70Q26.07 10.92 26.07 11.94L26.07 11.94Q26.07 12.92 27.01 12.92L27.01 12.92Q27.61 12.92 28.49 12.45L28.49 12.45L28.49 10.47L27.22 10.70ZM41.08 13.41Q40.46 13.64 39.88 13.75Q39.30 13.86 38.54 13.86L38.54 13.86Q36.50 13.86 35.50 12.61Q34.51 11.37 34.51 9.38L34.51 9.38Q34.51 7.39 35.49 6.16Q36.47 4.93 38.54 4.93L38.54 4.93Q39.33 4.93 39.87 5.03Q40.40 5.14 41.08 5.35L41.08 5.35L40.94 7.24L40.38 7.24L40.03 5.88Q39.38 5.71 38.78 5.71L38.78 5.71Q37.23 5.71 36.61 6.73Q35.99 7.74 35.99 9.38L35.99 9.38Q35.99 10.93 36.63 12.01Q37.27 13.08 38.72 13.08L38.72 13.08Q39.38 13.08 40.03 12.87L40.03 12.87L40.38 11.69L40.96 11.69L41.08 13.41ZM44.94 7.56Q44.28 7.56 43.67 7.76L43.67 7.76L43.34 8.95L42.80 8.95L42.56 7.22Q43.96 6.71 45.26 6.71L45.26 6.71Q46.33 6.71 46.89 7.06Q47.45 7.42 47.45 8.30L47.45 8.30L47.45 12.80L48.65 13.09L48.65 13.55Q47.87 13.78 47.15 13.78L47.15 13.78Q46.76 13.78 46.47 13.58Q46.17 13.38 46.09 13.02L46.09 13.02Q45.51 13.44 44.95 13.66Q44.39 13.87 43.78 13.87L43.78 13.87Q43.05 13.87 42.64 13.37Q42.22 12.87 42.22 12.15L42.22 12.15Q42.22 11.48 42.61 10.92Q42.99 10.36 44.00 10.18L44.00 10.18L46.06 9.80L46.06 8.68Q46.06 8.11 45.81 7.83Q45.57 7.56 44.94 7.56L44.94 7.56ZM44.79 10.70Q43.64 10.92 43.64 11.94L43.64 11.94Q43.64 12.92 44.58 12.92L44.58 12.92Q45.18 12.92 46.06 12.45L46.06 12.45L46.06 10.47L44.79 10.70ZM49.22 13.72L49.22 13.26L50.43 12.91L50.43 7.81L49.22 7.67L49.22 7.22L51.37 6.71L51.81 6.71L51.81 7.27Q52.29 7.06 52.95 6.88Q53.61 6.71 54.18 6.71L54.18 6.71Q54.64 6.71 55.04 6.85Q55.44 7.00 55.66 7.29L55.66 7.29Q57.20 6.71 58.28 6.71L58.28 6.71Q59.12 6.71 59.58 7.08Q60.05 7.45 60.05 8.22L60.05 8.22L60.05 12.91L61.28 13.26L61.28 13.72L57.68 13.72L57.68 13.26L58.66 12.91L58.66 8.53Q58.66 8.18 58.56 7.99Q58.45 7.80 58.18 7.72Q57.92 7.64 57.40 7.64L57.40 7.64Q56.55 7.64 55.89 7.85L55.89 7.85Q55.93 7.99 55.93 8.25L55.93 8.25L55.93 12.91L56.91 13.26L56.91 13.72L53.56 13.72L53.56 13.26L54.54 12.91L54.54 8.53Q54.54 8.16 54.44 7.97Q54.33 7.78 54.06 7.71Q53.79 7.64 53.24 7.64L53.24 7.64Q52.88 7.64 52.49 7.70Q52.09 7.76 51.81 7.85L51.81 7.85L51.81 12.91L52.78 13.26L52.78 13.72L49.22 13.72ZM64.04 7.08Q64.36 6.93 64.78 6.82Q65.20 6.71 65.55 6.71L65.55 6.71Q67.10 6.71 67.94 7.58Q68.78 8.46 68.78 10.23L68.78 10.23Q68.78 11.80 68.01 12.83Q67.24 13.86 65.35 13.86L65.35 13.86Q64.76 13.86 63.94 13.75Q63.11 13.64 62.64 13.47L62.64 13.47L62.64 4.63L61.45 4.49L61.45 4.06L63.60 3.53L64.04 3.53L64.04 7.08ZM64.04 12.91Q64.23 13.01 64.57 13.08Q64.90 13.15 65.30 13.15L65.30 13.15Q66.40 13.15 66.83 12.45Q67.26 11.76 67.26 10.26L67.26 10.26Q67.26 8.82 66.84 8.14Q66.43 7.46 65.34 7.46L65.34 7.46Q64.96 7.46 64.66 7.54Q64.36 7.62 64.04 7.77L64.04 7.77L64.04 12.91ZM73.58 7.70Q72.87 7.70 72.25 7.95L72.25 7.95L72.25 12.91L73.85 13.22L73.85 13.72L69.66 13.72L69.66 13.23L70.87 12.89L70.87 7.83L69.66 7.67L69.66 7.24L71.69 6.71L72.23 6.71L72.23 7.35Q72.70 7.04 73.28 6.86Q73.86 6.68 74.37 6.68L74.37 6.68Q74.63 6.68 74.75 6.69L74.75 6.69L74.51 8.86L73.88 8.86L73.58 7.70ZM77.27 5.66Q76.87 5.66 76.59 5.40Q76.31 5.14 76.31 4.76L76.31 4.76Q76.31 4.38 76.60 4.10Q76.89 3.82 77.27 3.82L77.27 3.82Q77.63 3.82 77.92 4.10Q78.20 4.38 78.20 4.76L78.20 4.76Q78.20 5.14 77.92 5.40Q77.64 5.66 77.27 5.66L77.27 5.66ZM79.17 13.72L75.38 13.72L75.38 13.19L76.58 12.91L76.58 7.81L75.38 7.67L75.38 7.24L77.53 6.71L77.97 6.71L77.97 12.91L79.17 13.19L79.17 13.72ZM84.69 13.06Q84.15 13.45 83.59 13.66Q83.03 13.86 82.36 13.86L82.36 13.86Q81.58 13.86 81.03 13.38Q80.47 12.89 80.20 12.09Q79.93 11.28 79.93 10.32L79.93 10.32Q79.93 8.62 80.75 7.67Q81.58 6.71 83.05 6.71L83.05 6.71Q83.41 6.71 83.77 6.78Q84.13 6.85 84.38 6.93Q84.63 7.01 84.64 7.04L84.64 7.04L84.64 4.63L83.44 4.49L83.44 4.06L85.58 3.53L86.03 3.53L86.03 12.80L87.23 13.09L87.23 13.55Q86.46 13.78 85.72 13.78L85.72 13.78Q85.37 13.78 85.06 13.58Q84.76 13.38 84.69 13.06L84.69 13.06ZM83.02 12.95Q83.47 12.95 83.91 12.78Q84.35 12.61 84.64 12.42L84.64 12.42L84.64 7.87Q84.01 7.46 83.22 7.46L83.22 7.46Q82.35 7.46 81.89 8.21Q81.44 8.96 81.44 10.28L81.44 10.28Q81.44 11.51 81.83 12.23Q82.22 12.95 83.02 12.95L83.02 12.95ZM90.38 16.20Q88.86 16.20 88.33 15.83Q87.79 15.46 87.79 14.84L87.79 14.84Q87.79 14.04 88.66 13.37L88.66 13.37Q88.42 13.27 88.31 13.05Q88.19 12.84 88.19 12.57L88.19 12.57Q88.19 12.25 88.42 11.90Q88.66 11.55 89.08 11.12L89.08 11.12Q88.17 10.51 88.17 9.07L88.17 9.07Q88.17 8.43 88.47 7.89Q88.76 7.35 89.36 7.02Q89.95 6.69 90.79 6.69L90.79 6.69Q91.66 6.69 92.37 7.07L92.37 7.07L94.33 6.54L94.33 7.59L92.83 7.59Q93.11 7.85 93.26 8.26Q93.41 8.67 93.41 9.07L93.41 9.07Q93.41 10.09 92.75 10.77Q92.09 11.44 90.68 11.44L90.68 11.44Q90.36 11.44 90.06 11.40Q89.75 11.35 89.70 11.33L89.70 11.33Q89.39 11.79 89.39 12.01L89.39 12.01Q89.39 12.18 89.50 12.32Q89.61 12.46 89.82 12.46L89.82 12.46L91.97 12.46Q93.03 12.46 93.58 12.77Q94.14 13.08 94.14 13.92L94.14 13.92Q94.14 14.49 93.73 15.02Q93.32 15.54 92.48 15.87Q91.63 16.20 90.38 16.20L90.38 16.20ZM90.82 10.71Q91.49 10.71 91.76 10.29Q92.04 9.87 92.04 9.07L92.04 9.07Q92.04 7.42 90.78 7.42L90.78 7.42Q90.12 7.42 89.85 7.85Q89.57 8.29 89.57 9.07L89.57 9.07Q89.57 9.87 89.86 10.29Q90.15 10.71 90.82 10.71L90.82 10.71ZM90.47 15.43Q91.73 15.43 92.32 15.08Q92.90 14.73 92.90 14.11L92.90 14.11Q92.90 13.72 92.69 13.59Q92.47 13.47 91.97 13.47L91.97 13.47L89.47 13.47Q89.04 14 89.04 14.53L89.04 14.53Q89.04 15.01 89.35 15.22Q89.66 15.43 90.47 15.43L90.47 15.43ZM98.20 13.87Q96.54 13.87 95.76 12.94Q94.98 12.01 94.98 10.32L94.98 10.32Q94.98 8.51 95.78 7.61Q96.59 6.71 98.04 6.71L98.04 6.71Q99.43 6.71 100.08 7.35Q100.73 7.99 100.73 9.37L100.73 9.37Q100.73 9.73 100.69 10.14L100.69 10.14L96.49 10.14L96.49 10.54Q96.49 11.77 97.01 12.40Q97.54 13.03 98.50 13.03L98.50 13.03Q99.40 13.03 100.55 12.71L100.55 12.71L100.65 13.20Q100.09 13.55 99.51 13.71Q98.94 13.87 98.20 13.87L98.20 13.87ZM96.52 9.56L99.27 9.41L99.27 9.10Q99.27 8.29 99.01 7.89Q98.74 7.49 98.13 7.49L98.13 7.49Q97.29 7.49 96.93 7.97Q96.57 8.46 96.52 9.56L96.52 9.56Z"></path></g><defs data-v-fde0c5aa=""><linearGradient data-v-fde0c5aa="" gradientTransform="rotate(25)" id="b2c86a74-c22a-4a46-be6e-60ac7643c6aa" x1="0%" y1="0%" x2="100%" y2="0%"><stop data-v-fde0c5aa="" offset="0%" stop-color="#000A68" stop-opacity="1"></stop><stop data-v-fde0c5aa="" offset="100%" stop-color="#00C4EE" stop-opacity="1"></stop></linearGradient></defs><g data-v-fde0c5aa="" id="3cd375c5-b070-4968-ab1c-cb99525b2896" stroke="none" fill="url(#b2c86a74-c22a-4a46-be6e-60ac7643c6aa)" transform="matrix(0.5348638309386993,0,0,0.5348638309386993,99.72280154954144,91.66233756467727)"><path d="M46 120.7c-.5-2.6-1.5-7.2-2.8-9.9-.2-.4-.5-1.4-.5-2.3.1-3.9.3-15.1 0-22.9 0-.5.1-1.4-1.2-2L39 82.5c-.8-.4-1.2.3-1.2.7-.4 8.7-.1 20.9 0 25.1 0 1-.4 2.1-.5 2.5-1.5 2.8-2.6 7.1-3 10-.1.7.3 1.8 1.2 1.9 1.8.2 5.3.5 9.6 0 .4 0 1.2-.9.9-2zM185.2 22.8S141.8 5.2 101 .6c-3.9-.4-10.1-1-14 0 0 0-40.6 5.9-84.2 22.2-3.7 1.4-3.8 2.7 0 3.7 0 0 28.4 13.2 84.2 22.2 3.9.6 10.1 1 14 0 0 0 51.5-10.5 84.2-22.2 3.7-1.4 3.8-2.7 0-3.7zM94 25.7c-5.4 0-9.8-1.3-9.8-2.8 0-1.5 4.4-2.8 9.8-2.8s9.8 1.3 9.8 2.8c0 1.6-4.4 2.8-9.8 2.8z"></path><path d="M94.9 56.5c-2.9 0-6.2-.3-9-.7-20.9-3.4-37.9-7.3-51.2-11-.9-.2-2.8-.1-3 1.7-.7 8.3-.8 17.1.6 24.7.4 2 1.9 3.5 2.5 3.8 38.7 16 80 17.4 118.9-.2.4-.2 1.4-1 1.6-2.2 1.8-8.6 1.8-19.3.6-28.4-.1-.8-.9-.9-1.3-.8-25.3 6.8-49.4 11.8-52.1 12.3-2 .5-4.6.8-7.6.8z"></path></g><!----></svg>