<?xml version="1.0" encoding="UTF-8"?>
<svg version="1.1" viewBox="0 0 1200 1000" width="1200" height="1000" xmlns="http://www.w3.org/2000/svg">
<path transform="translate(0)" d="m0 0h1200v1e3h-1200z" fill="#FCFCFB"/>
<path transform="translate(453,690)" d="m0 0 6 2 23 15 10 7 26 20 14 12 8 8 2 1v2l4 2 7 7v2h2l6 7 4 8 7 8 3 4v2h2l2 5h2l7 13 3 5 4 4 6 10 5 10-3-14-6-12-3-3-2-11v-21l3-7h2l1-6 2-5 4 4 7 16 2 6v28l1-6 3-41 4-11h2l1-2 3 8 1 16-1 10-2 9v8l-6 26 4-7 6-16 8-19 8-13 7-11 8-11 12-16 7-8h2v3h-2v3l1-1h11l-2 4-6 6 7-6 15-14 9-7 3-3 5-4h2v-2l6-3 11-1 7-2 16-1 6 1 5-1h14l7 1 2 4-2 4-6 5-20 6-13 5-5 3-6 1v2l13-2 6-3 5-1 1-2 19-5 18-4 35-5h22l7 3 12 3 7 2v3l7 5v2l5 2 1 2 18 6 5 2h12v2h2l6 8 3 3v2h2l8 10 1 3h2l9 11 18 21v2h2l4 5-1 3-7-1-6-2 4 6 9 10 2 1-6-7 1-3 10 2 3 4v2h2v2h2l4 5v2h2l5 6v2l5 2 11 11 9 11 7 8v2l4 2 9 9 4 5 5 5 7 9v4h3l1 3 6 2-1 2-9 1-406 2-57 1-110-2-120-1h-228l-3-2v-8l5-5h15l5-1 41-1 9-1 1-1h-39-3l-3-1 2-4 5-2-3-1v-2l13-2 13-1h-13l-5-2-1-2h3l1-4h5l-2-3v-3l6-1v-3l6-2 13-3 3-1h-17l2-1 2-4 20-5-6-1-1-5 5-6 16-2 69-11 47-7 35-4 27-1h21l18 1 5 1 14 1 2 1h12l-27-3-16-2-14-1h-21l-31 2-38 5-18 3-11 1-17 3-23 3h-10v-2l2-1v-3l10-4 5-1-4-2 4-2 15-2 25-5 27-5 40-5 16-1h36l26 3 21 5 19 5 16 6 15 7 16 8 15 10 6 5v-2l-4-2-9-8-17-10-10-5-14-5-11-5-16-5-23-6-21-3-9-1h-57l-31 2-12 2h-14l2-3-7-2 1-3 6-1 1-5 5-4 2-1 25-2h59l27 3 23 5 28 8 25 10 17 9 11 8 5 1v-2l-5-2v-2l-6-2-11-8-12-5-4-1v-2l-10-2v-3l-7 1v-2l-10-2v-2h-6v-2l-3-1-3-2-8-3-9 1v-2l-11-3-7-2h-5l-4-2-18-4-12-2-1-3h-11l-19-2-4-2-4-4 1-2 6-2 3-2 1-5 5-1 2-6 6-3 5-3 7-3v-2l4-1 5 2 12 3 12 4 11 5 16 6 11 5v2l9 3 15 8 11 6 10 6 18 12v2l4 2 9 8 3 1 1-2h-2v-2h-2v-2l-4-2-12-10-2-1v-2l-5-2-7-6-14-7-11-7-11-6-11-5-7-2-5-3-1-2-11-5v-2l-4-1-5-2-4-3-7-3-6-5-7-5-5-7 3-5 9-9 5-2 5-1 6 1z" fill="#B9BBBB"/>
<path transform="translate(629,93)" d="m0 0h8l5 4 3 5v7l-4 5 1 4 3 4 1 4 5 5 5 10 7 11 1 4h2l2 3v3h2l1 6h3v2l17-5 10-2 13-7 19-11h9v-8h2l2-9v-6l-4-5v-13l7-5 11 1v2h2v2h2l2 4v8l-4 6-4 2h-6l-6 18-1 5 6 2 9 5v2l4 1 2 1v2l4 1 23 7 26 9 8 3 18 5 3 4 4 17 9 39 1 6v5l3 4v4h2l8 16 11 23 4 10 1 7-7 2 3 2-1 4-5 7h-2l-1 11h17l1 3-6 2-17 1-5 6-5 10-6 10-11 18-3 5-2 7-3 4-1 5 4 2v2h2l1 4 4 2v3l3 1 5 7 2 1v2l4-2h7l6 4 2 3v8l-3 6-5 3h-9l-6-4-2-4v-8l1-4-2-5-8-9-8-10h-5l-2 5-2 2-12 3-8 3-10 4-13 4-7 2-8 3-14 3-2 1-5-2-6 2-2-6v-26l1-10 1-2-1-2v-46l2-5 3-2 3-10-7-4-7 1-1 1h-10l-4-3-3-1v2l9 3 3 2 3 9 5 5 1 6v31l-1 10-17-1-14-3-10-1-10-2-13-2-6-4-3-5-7-3-3-7-1-5h-2l4 13-1 4-1 1v6l4 5 12 3 10 7 7 5-5-6-5-3-5-6 2-1h8l18 2 12 3 21 3 5 2 1 21-1 18-6 1-12-9-9-6 15 14 3 2v2l-12-2-9-3-12-3-15-5-17-5-16-5-7-6-4-10-10-19-3-5-2-1-4-11-8-16-6-10-4-9-6-4-4-6-3-9 2-3 3-9h3v-3h2v-6l3-7 2-4h2l1-6 1-2h2l2-7 3-9v-3l-2-1v-2h-2l-2-3-10-5-1-2 4 1 15 6 3-12 2-13 6-25 5-17 4-4 16-5 9-3 12-2-1-9h-2l-1-5h-3l-6-11-1-4h-2l-5-9-4-6-1-4-3-3-2-6h-7l-6-3-4-5-1-5 3-8z" fill="#D9F6F6"/>
<path transform="translate(376,780)" d="m0 0h59l27 3 23 5 28 8 25 10 17 9 13 9 13 10 9 10 2 1 1-4 3 4-1 4 5 2 2 4h3l2 5 3 3h6l1 2 11 5v2h4v3l4 1v2l5 2 6 6v2h4l6 16-1-7 1-3 5 1v-3l7-4 21-5 16-2 14-1h31l22 1 49 5 47 6 6 2 29 3 23 3 52 4 41 2 44 1 10-2 6 6-1 8-1 1h-364l-35 1-14 1h-89l-30-2-45-1h-141l-186 1h-11l-5-2-1-7 5-5h15l5-1 41-1 9-1 1-1h-39-3l-3-1 2-4 5-2-3-1v-2l13-2 13-1h-13l-5-2-1-2h3l1-4h5l-2-3v-3l6-1v-3l6-2 13-3 3-1h-17l2-1 2-4 20-5-6-1-1-5 5-6 16-2 69-11 47-7 35-4 27-1h21l18 1 5 1 14 1 2 1h12l-27-3-16-2-14-1h-21l-31 2-38 5-18 3-11 1-17 3-23 3h-10v-2l2-1v-3l10-4 5-1-4-2 4-2 15-2 25-5 27-5 40-5 16-1h36l26 3 21 5 19 5 16 6 15 7 16 8 15 10 6 5v-2l-4-2-9-8-17-10-10-5-14-5-11-5-16-5-23-6-21-3-9-1h-57l-31 2-12 2h-14l2-3-7-2 1-3 6-1 1-5 5-4 2-1z" fill="#BBBDBC"/>
<path transform="translate(386,590)" d="m0 0 1 2h4v2l4 1 7 4h3v2l8 2v2h4v2l6 2 12 7 7 3 3 3h2v2l6 1 4 2 2 2 2 1v2l6 1 2 2 1 2 5 1 4 4h2l6 6-6 1 6 4 1 4 7 1 1 1 6-1 4 2 3 6 3-1 7 5 4 2 9 9-3 4v2h2v2h5l2-2 5 3 5 4 7 6 7 9v2l4 1v2h2l4 5 3 2v3h2l4 5v2l4 2 3 5 5 8v2l2 1 6 11 3 6-1 3-2-3-4 10h-2l-2 7v24l2 10 4 2 4 10 3 9 1 10-7-14-7-11v-2l-3-1-5-8-4-8v-2h-2l-2-5h-2l-8-11-6-8-3-5-3-3v-2h-2l-7-8-4-3v-2l-4-2-9-9-11-9-14-11-13-10-27-18-11-6v2l-3 1-7-1-2 2-5 2-6 7-3 2-1 4 5 6 9 6 3 3 10 5 2 2 8 3 1 2 11 5v2l5 2 9 3 16 8 11 7 11 6 8 4 9 7 2 1v2l5 2 11 10 2 1v2h2v2h2l-1 3-5-3-11-9v-2l-5-2-10-7-11-7-10-6-17-8-10-5-1-2-26-10-11-5-18-6-8-2-5-1-3 4-10 4-5 3h-2l-2 6-5 1v5l-8 5-2 1 4 4 13 2 20 2 1 2 19 3 5 2 9 2 5 1 7 1 8 3 7 1-3 1v2l5-2 7 1 9 4 2 4h6v2h5l5 2v2l7-1v3h5l5 2v2l6 1 10 4 6 5 5 3 6 3 3 3 2 1v2h-5l-11-8-21-11-21-8-31-9-27-5-20-2h-59l-25 2-2 2-3 2-2 2-1 3-6 1v2l8 2-3 3h13l12-2 31-2h57l19 2 19 4 26 7 11 5 16 6 9 4 11 6 14 9 7 7 2 1v2l-4-2-9-7-11-7-24-11-15-6-11-4-28-7-22-3-10-1h-36l-25 2-37 5-43 8-10 2-11 2 4 2-10 4-6 1 1 4h-3v2l33-4 17-3 24-3 19-3 24-3 31-2h21l25 2 21 3 12 1-1 2h-12l-2-1-14-1-5-1-18-1h-21l-27 1-35 4-91 14-29 5-12 1-2 3h-2l1 5-1 2 16 1v1l-18 2-12 3-2 3h21v1l-9 2-13 3-6 2 2 3h-8l2 6-5 1-1 3-2 1 5 2h14l-1 2-18 2h-8v2h10l-4 2-7 1-3 4 5 1 1-1h44v1l-6 2-9 1-41 1-5 1h-15l-4 2-1 6h-2l1-7h3l2-4 4-6 14-11 6-7 5-4 7-8 11-12 10-10 7-8 10-12 2-1 1-5 4-1 1 4 10-1 11-1 12-1 15-3 17-3h3v-2l-24 1-1-9 1-2h2v-2h2l2-5h3v-2l5-3 7-5 12-2 21-2 28-2 10-1-17-1v-1l18-2-1-3h-11l-4 1h-11l-7-3-9-3-2-3 3-2 2-5 7-3 10-9 12-5 4-6 4-1 2-5 4-5v-2l-5 2v2l-11 9-9 6-5 5-2-1 4-5 11-8h2v-2l4-2 3-4h2l2-4h3l-2-2-1-2-9-1-11-3-21-5-30-6v-2l-3 1-15-4-9-1-5-1 2-4 10 2h11l-2 1v2l4-2 9-1 1-1h-5l-2 1v-2l-5 1v-3l1-9h2l2-5 15-8h4l-2-2 5-4h3v-2l14-6h4l-1-3 5-3 4-2-2-2-12-5-9-3v-2l-9-2v-2l-5-1-4-2 1-2h4l1-3 9-4 15-6 14-7 12-5 3-2h4l1-2z" fill="#DFE0DF"/>
<path transform="translate(721,197)" d="m0 0h12l2 2 1 4v12l-9 4-5 3h-2l-2 5-3 4 1 6 5-1 2-5 1-2h2v-2l6-4h16l6 4 3 3 3 1 2 4v14l-5 9-5 4-9 4h-7l-10-5-5-5-3-5v-2h-2l3 8 3 5v3l6 1 7 3h8l15-5 4-5 4-9v-16l-5-9-7-6-10-4v-12l1-6h13l47 4 12 2 2 2 4 32 4 41 1 7v8h-2v5l-4 4h-5l3 4v3l9 2 1 1 3-6 5-1v2l3 1v2h3v8l-3 7-8 26-5 12-8 20-7 4-3 6-5 2 3 1-2 4-1 1 7-1h9l3-3h2l2-7 10-7 5-2 3-4h4v6h-2l-2 6-6 12-6 15h-2v3h-2l-2 5-2 2-12 3-8 3-10 4-13 4-7 2-8 3-14 3-2 1-5-2-6 2-2-6v-26l1-10 1-2-1-2v-46l2-5 3-2 3-10-7-4-7 1-4 1-11-6-13-5-22-9-10-5-7-1-8-3-3-8-2-1v-2h-2v-2h-2l-1-10 3-40 2-13 2-23 3-6h2v-2z" fill="#80DFDA"/>
<path transform="translate(605,862)" d="m0 0 11 1 1 2 11 5v2h4v3l4 1v2l5 2 6 6v2h4l6 16-1-7 1-3 5 1v-3l7-4 21-5 16-2 14-1h31l22 1 49 5 47 6 6 2 29 3 23 3 52 4 41 2 44 1 10-2 6 6-1 8-1 1h-364l-35 1-14 1h-89l-30-2-45-1h-141l-186 1h-11l-5-2-1-7 5-5h15l5-1 41-1 23-2 27-3 46-5 85-12 22-3 43-4h42l3 1 18 1 14 2 5 2-2 4-2 2 7-1 4 3h5l3-1v-2l9-7h4l1-5 5-2 12-8z" fill="#ED6919"/>
<path transform="translate(655,311)" d="m0 0 9 2 11 4-4-3v-2l4 1 16 7 18 7 11 5 10 5v1h-7l-4-3-3-1v2l9 3 3 2 3 9 5 5 1 6v31l-1 10-17-1-14-3-10-1-10-2-13-2-6-4-3-5-7-3-3-7-1-5h-2l4 13-1 4-1 1v6l4 5 12 3 10 7 7 5-5-6-5-3-5-6 2-1h8l18 2 12 3 21 3 5 2 1 21-1 18-6 1-12-9-9-6 15 14 3 2v2l-12-2-9-3-12-3-15-5-17-5-16-5-7-6-4-10-10-19-3-5-2-1-4-11-8-16-6-10-4-9-8-10-1-6 11-4 21-6h7l4 1 1-2h7l-2 2h-5l1 3h-2l2 4 1 1 2-2 2 5 1-8 11-5z" fill="#80DFDA"/>
<path transform="translate(780,729)" d="m0 0 4 1-2 1v2l9 1v-2l5 1 4 2v1l-14 1-19 4-13 4-12 3-16 6-17 9-10 5-5 2v2l-2 1 4-1 1-2 16-8 15-7 17-6 28-7 10-2 21-2 23 1-2 2-3 1v3l5 2 9 5 13 10 6 5v2l-9 2-8-1-7-1-20 2-39 2-13 2-24 5-19 5-19 8-8 5-10 4-25 17-16 15-11 13-4 6 6-5 6-7 8-7 4-2v-2l8-6 15-10 14-8 15-6 16-6 21-5 21-3 8-1h57l36 4 34 6 29 6 14 4 3 6 3 5v2l4 1 3 3v2l3 1v6l-17-3-10-2-7-3-6-2-9-1-10-4h-6l-1-1-8-1v-2l-8 1-1-2-21-5-23-1-9-2-11-1h-28l-5 1-24 1-27 4-17 4-22 8-16 7-8 5-3 3-9 5-13 11-4 2v2l-4 3h-3v-2h-2l5-15 10-16 18-22 6-8h2l2-4 11-10 7-5 4-4 16-10 7-5 17-8 10-5 20-7 10-3 7-3z" fill="#545555"/>
<path transform="translate(904,589)" d="m0 0 4 1v2l-10 4h-3l-1 2h-4v2h-5l-1 2-8 3-7 3-10 4-14 7-12 5h-3v2l-7 2v2h-4v2h-4l-1 2-13 7h-2v2l-5 2-13 8-14 9-7 5h-2v2l-4 2-1 2 13-6h12v2l5-2 7 3 5 1 5-3 11-4 10-4 11-5 26-8 8-3h5v-2l16-4h3l1-2 4-1 2-1 5-1 8-1 1-1 8-1 1-1h5l1-2 12-2 8-1-1 4-10 2-21 5-12 2-5 2-18 5-18 6-7 2-10 3-7 3h-4v2l-9 3-12 5-11 5-8 3-6 3v1l13 3v1h6 2l18-2 6-3h14l5-2 9-2 3-4 16-1 3-1 2 1v2l2 1-7 2-1 1-14 1-8 2-6 1-1 1h-14l1 2 20-2 3-2 6-2h23l3-1 5 2 1-4 7-3 7-2 8-3 2-1-5-1v-1h11l8 6v2l4 1 4 5 6 3 5 5 1 2 3 1 5 5 9 7 7 6v2h2v2l-8 1h-62l-32 2h-8l-4 1-1-1h-10l-5 1 16 1 4 3h-5l-1-1h-22l-35 5-29 7-8 1-1 3-10 3-6 2h-8v-2l9-4 12-5 12-4 11-3 4-4h2l1-6-1-1-10-1h-11l-9 1-4-1-14 1-12 3-9 1-3 1v2l-7 5h-2l-2 4-8 6-9 9-8 7-4 4-2-1 8-8 1-2-3 1h-8-3l2-3h2v-3l-2-1 1-2h2v-2h2l2-4 5-6h3l1-4 4-4h2l1-3h2v-2l3-3h3l2-4 9-8 4-3h2v-2h2v-2l9-7h2v-2l8-5h2v-2l12-8h3v-2l6-4 5-1v-2h2v-2l11-6 6-4h3l1-2 15-8 4-3h3l1-2 7-3 7-4 8-3 10-5 12-5 8-4 9-2 1-2 14-5z" fill="#E0E1E0"/>
<path transform="translate(736,146)" d="m0 0h6l13 8 11 7 36 22 16 10v3l-7 2 3 2 5 2 3 7 2 19v-11l-1-4 1-7h3l9 12 7 9 5 9 11 18 7 12 8 17 7 14 8 18v5l-9-1-11-4-16-5-6-2-10-9-5-8-1-10-1 13-2 2-3-1 1-2h2l-3-24-3-32-2-18-2-14-4-2-32-3-37-3-1 18 5 1 8 4 7 8 3 6v16l-6 12-2 2v1l-7 2-9 3h-8l-13-5-6-12v-4h2l5 8v2l5 2 8 4h7l12-6 5-7 1-3v-14l-1-4-4-1-4-4-4-2h-16l-4 3h-2v2h-2l-2 5-4 4-3-1-1-6 6-9 9-5 6-2v-12l-2-5h-12l-47 4h-13v2h-2l2-4 4-1v-2h-5l-1-3 4-4h2v-2l15-8 14-10 12-6 22-14z" fill="#80DFDA"/>
<path transform="translate(376,780)" d="m0 0h59l27 3 23 5 28 8 25 10 17 9 13 9 13 10 12 13 1 6h2l-1 2-15-8-14-9-21-8-9-5-26-9-31-7-18-2-67-1v2l22-1h26l17 1 24 3 20 4 8 3 27 9 1 2 7 3v2l-5-1-24-5-2-1-14-2-18-2h-57l-20 1-50 8-26 4-62 9-19 2h-10v-2l5-2 41-7 86-13 35-4 27-1h21l18 1 5 1 14 1 2 1h12l-27-3-16-2-14-1h-21l-31 2-38 5-18 3-11 1-17 3-23 3h-10v-2l2-1v-3l10-4 5-1-4-2 4-2 15-2 25-5 27-5 40-5 16-1h36l26 3 21 5 19 5 16 6 15 7 16 8 15 10 6 5v-2l-4-2-9-8-17-10-10-5-14-5-11-5-16-5-23-6-21-3-9-1h-57l-31 2-12 2h-14l2-3-7-2 1-3 6-1 1-5 5-4 2-1z" fill="#283031"/>
<path transform="translate(298,920)" d="m0 0h90l124 1 106 2 57-1 153-1 262-1v1l-6 1-17 1 3 3-10 1-2 1h-9l2-3-22 2-3 1h-17l-12 2h-10l-10 1h-35l-5 1h-28l-45 1-6 1-4-1h-11l-4 1h-34l-43 1-15-1h-36l-31-3h-25l-13-2h-17l-7 1h-12l-3-1-16 1-26 2-28 1h-22l-23-1h-68l-18-3h-25l-9-1-55-3-7-1-1-2-8 1z" fill="#E0E1E0"/>
<path transform="translate(754,267)" d="m0 0 5 2 11 6 16 10 13 8 12 7v2h2v2h2l-2 5-13 7-8 3-12 5-15 6-12 5-5 2-6-3h-7l-4 3-5-1-7-4-13-5-22-9-10-5-4-1v-2l-5-1-4-2 1-3 9-6 9-5 16-10 17-10 9-5h6l5 3h12z" fill="#06C8BB"/>
<path transform="translate(369,779)" d="m0 0h69l5 1v1h-67l-25 2-2 2-3 2-2 2-1 3-6 1v2l8 2-3 3h13l12-2 31-2h57l19 2 19 4 26 7 11 5 16 6 9 4 11 6 14 9 7 7 2 1v2l-4-2-9-7-11-7-24-11-15-6-11-4-28-7-22-3-10-1h-36l-25 2-37 5-43 8-10 2-11 2 4 2-10 4-6 1 1 4h-3v2l33-4 17-3 24-3 19-3 24-3 31-2h21l25 2 21 3 12 1-1 2h-12l-2-1-14-1-5-1-18-1h-21l-27 1-35 4-91 14-29 5-12 1-2 3h-2l1 5-1 2 16 1v1l-18 2-12 3-2 3h21v1l-9 2-13 3-6 2 2 3h-8l2 6-5 1-1 3-2 1 5 2h14l-1 2-18 2h-8v2h10l-4 2-7 1-3 4 5 1 1-1h44v1l-6 2-9 1-41 1-5 1h-15l-4 2-1 6h-2l1-7h3l2-4 4-6 14-11 6-7 5-4 7-8 11-12 10-10 7-8 10-12 2-1 1-5 4-1 1 4 10-1 11-1 12-1 15-3 17-3h3v-2l-24 1-1-9 1-2h2v-2h2l2-5h3v-2l5-3 7-5 12-2 21-2z" fill="#BABCBC"/>
<path transform="translate(1013,835)" d="m0 0h10v2h6l3 1 13 1 7 3 16 7 12 3 9 3 8 3 15 2 6 3 10 4 12 4 7 6 3 6 3 1 2 5v11l-5 6-7 3-17 2-5 2-15 3h-6l-1 3-9 1v-2l-6-2v-3h-3l-2-5-8-11-6-5-7-8-6-5-6-8-10-11-7-8-7-6-5-5-2-4h-2z" fill="#E0E1E0"/>
<path transform="translate(721,197)" d="m0 0h12l2 2 1 4v12l-9 4-5 3h-2l-2 5-3 4-2 5v12l1 7h2l4 8-8 6-9 5-10 6-2 2h-3v2l-11 6-12 7-6 4-1-2-5-2-2-5 1-14 1-15 3-24 3-28 2-9z" fill="#06C8BB"/>
<path transform="translate(745,197)" d="m0 0h13l47 4 12 2 2 2 4 32 4 41 1 7v8h-2l-2 4-4 4-4-2v-2l-5-2-12-7v-2l-5-1-10-7-15-9-9-6 6-13v-16l-5-9-7-6-10-4v-12z" fill="#06C8BB"/>
<path transform="translate(406,823)" d="m0 0h76l3 1 26 3 12 3 7 1-3 2 4 2-1 1h-11l-11-1-3-1-21-1h-16l-46 2h-10v2l-16 2-10 2-23 4-14 2-13 1-19 4-14 2h-7v2l-18 3h10l55-9 52-9 40-5h69l20 3 12 2 7 3v1h-5l-1-1h-10l-1-1-23-3h-48l-25 2-42 6-27 5-23 4-42 7-29 4-26 3-6 1h-21v-2l15-3 5-2h-17l2-1 2-4 20-5-6-1-1-5 5-6h5l-3 2h-2v2l35-4 56-8 26-4 25-4z" fill="#B9BBBB"/>
<path transform="translate(765,785)" d="m0 0h57l36 4 34 6 29 6 14 4 3 6 3 5v2l4 1 3 3v2l3 1v6l-17-3-10-2-7-3-6-2-9-1-10-4h-6l-1-1-8-1v-2l-8 1-1-2-21-5-23-1-9-2-11-1h-28l-5 1-24 1-27 4-17 4-22 8-16 7-8 5-3 3-9 5-13 11-4 2v2l-5 2v-2h2l1-4 9-10 8-7 4-2v-2l8-6 15-10 14-8 15-6 16-6 21-5 21-3z" fill="#3E3E3E"/>
<path transform="translate(992,820)" d="m0 0 10 2 3 4v2h2v2h2l4 5v2h2l5 6v2l5 2 11 11 9 11 7 8v2l4 2 9 9 4 5 5 5 7 9v4h3l1 3 6 2-1 2-9 1-406 2-57 1-110-2-120-1h-228l-3-2 1-4 1 3 4 1h32l191-1h115l45 1 30 2h89l14-1 35-1h364l1-8-5-5-10 2-44-1-36-2 3-3 4-1 1-2h7l4 1v2l2-2 4-1-13-3v-1h12l21 1-2-1-11-1-3-1-19-1 3-2 1-1-22-3-34-6-39-8-32-7-41-8-35-5-18-2-16-1h-39l-7-1v-2l7-1 38-1 26 1 19 2 10 2 19 3v2l11 1 16 3 13 3 20 4 35 8 23 5 23 4 15 3 14 2 9 2 17 2 6 1 2-4 3-1-5-9-6-5-2-5-4-2-4-6-3-2v-2l-2-1v-3l-6-2-6-8-3-1-4-8-1-3h2l-6-7z" fill="#BABCBC"/>
<path transform="translate(716,334)" d="m0 0 5 1 2 2h10l3-2 8 1 6 3-2 1-1 6-2 5-3 2-1 4v46l1 3-1 1-1 12v24l1 6 7-3 5 2 8-3 9-2 7-3 13-3 7-3 30-10 3-5 2 1-5 8-21 6-12 5-7 2-8 3-5 3-7 8-6 7-14 14-3 4h-3v15h-2l-1 4-3 2h-8l-1-3-5-2-2-4 2-9 5-3-1-7-7-1-7-9v-2l-4-2-8-10-5-5-11-4-11-3-4 1-7 6h-2v2h-2l-1 4-12 13h-2v2h-2l-1 4-1 2h-2v2l-8 7-1 2h-2l-1 4-6 4-1 2h-2l-1 5-4 5v14l-5 5-3 2h-7l-7-6-2-4v-7l7-7 7-1h8l6-7 1-2h2v-2h2v-2h2l2-6 11-10 1-3h2v-2h2l1-3 13-13 3-5h2l1-3 3-2-1-4-7-3-10-3-6-5-7-16-9-16-2-1-8 4-6 5-3 1-5 5-9 5-2-1 5-5h2v-2l6-1 1-5h3l1-3 7-3 3-5h2l-3-9-8-16-7-13-4-10 5 4 5 12 4 6 9 19 2 4v4l3 1 7 12 9 19 3 5 4 3 16 5 19 6 34 10 12 3v-2l-4-2-8-8-7-6h3l8 6 11 8h6v-24l-1-15-15-3-13-2-9-2-18-2h-8v2l5 5 5 3 4 4-1 2-15-11-4-2-10-2-5-6v-6l2-2-1-7-2-6v-3h2l2 5 3 7 7 3 4 6 4 2 21 3 2 1 15 2 9 2 17 2v-41l-1-6-6-6v-5l-2-1v-2l-11-5z" fill="#D8F5F6"/>
<path transform="translate(419,727)" d="m0 0 17 4 14 5 11 5 16 6 11 5-2 1-5-2h-4l2 2-4 1-1 4 3 1v2h5v2h5l-2 4 7 5 13 4 16 7 5 4 18 9 11 7-5-5-8-7 1-2 9 7 7 7 8 7 3 3v2l4 2 18 18 6 8 5 9 1 3h-2l-5-5-2-1-1-6-1-1-1 3-4-2-9-10-11-8 3-1v-2l-5-2v-2l-6-2-11-8-12-5-4-1v-2l-10-2v-3l-7 1v-2l-10-2v-2h-6v-2l-3-1-3-2-8-3-9 1v-2l-11-3-7-2h-5l-4-2-18-4-12-2-1-3h-11l-19-2-4-2-4-4 1-2 6-2 3-2 1-5 5-1 2-6 6-3 5-3 7-3v-2z" fill="#BABBBB"/>
<path transform="translate(830,270)" d="m0 0h1l2 21 6 9 9 8 16 4 7 3 9 3 9 2 1-4 1 4-7 2 3 2-1 4-5 7h-2l-1 11h17l1 3-6 2-17 1-5 6-5 10-6 10-11 18-3 5-2 7-3 4-1 5 4 2v2h2l1 4 4 2v3l3 1 5 7 2 1v2l4-2h7l6 4 2 3v8l-3 6-5 3h-9l-6-4-2-4v-8l1-4-2-5-8-9-8-10h-3v-3h2l1-5 9-21 4-7h2v-6l-5 2v2l-10 5-6 4-3 7-5 4h-11l-6 1 3-5-3-1 1-2 5-1 1-4 2-3 6-3 9-22 6-16 8-26 1-1 1-8h-3l-3-3v-2l-5 2-2 6-4-2-8-1-1-5-3-3 1-2 1 1h7l2-5 3-2z" fill="#BCECEC"/>
<path transform="translate(469,875)" d="m0 0h42l3 1 18 1 14 2 5 2-2 4-2 2v3l-7 1-53 3-42 3-20 1-6 1-67 3-50 3-51 2-39 1h-21l-8-1-1-2 41-1 23-2 27-3 46-5 85-12 22-3z" fill="#211D1C"/>
<path transform="translate(653,202)" d="m0 0 3 1 1 7-3 31-1 7-3 38v10h2v2h2v2l4 2 2 7 11 4 5 4-2 1-12-5-7-1-5 3-10 3v8l-2 1-2-4-2 1-3-4 1-3 1-2 4-1-9 1h-7l-9 3-12 3-11 3 3 7 3 4v2l-3-1-4-6-3-9 2-3 3-9h3v-3h2v-6l3-7 2-4h2l1-6 1-2h2l2-7 7-14h2l1-4 7-11 2-1 2-5h2l1-6 5-7 1-3h2l2-5 5-9 2-3h2v-2h2z" fill="#C8E9EC"/>
<path transform="translate(461,842)" d="m0 0h49l15 3 1 3 8 1 11 5 11 4 5 1v1h-9l-6-2h-8v-2h-9l-18-2h-28l-26 2-15 2-43 5-45 8-38 6-31 4-44 4-35 3 1-2-3-3 13-4 36-5 57-9 34-6 29-6 35-6 34-4z" fill="#232E30"/>
<path transform="translate(605,862)" d="m0 0 11 1 1 2 11 5v2h4v3l4 1v2l5 2 6 6v2h4l6 16-1-7 1-3h3v8l-1 6-7 3-21 3-9 1h-35l-20-4-8-5-1-13-9-4v-2l5-1 4 3h5l3-1v-2l9-7h4l1-5 5-2 12-8z" fill="#1F2E30"/>
<path transform="translate(720,880)" d="m0 0h31l22 1 49 5 47 6 6 2 29 3 23 3 52 4 41 2 33 1 6 1v1h-55l-58-2-60-3-29-1-73-4-84-4-38-2 4-3 7-3 17-4 16-2z" fill="#233031"/>
<path transform="translate(825,205)" d="m0 0 5 5 9 12 4 5 5 9 11 18 7 12 8 17 7 14 8 18v5l-9-1-11-4-16-5-6-2-10-9-5-8-1-10-1 13-2 2-3-1 1-2h2l-3-24-3-32-1-6v-11l2 1 1 7v-11l-1-4 1-7z" fill="#80DFDA"/>
<path transform="translate(453,690)" d="m0 0 6 2 23 15 10 7 13 10 8 6-4 3h-2l4 10 13 13 5 4 5 5 8 7 5 3 15 15v2l4 2 3 6h-3v-2h-2v-2l-4-2-12-10-2-1v-2l-5-2-7-6-14-7-11-7-11-6-11-5-7-2-5-3-1-2-11-5v-2l-4-1-5-2-4-3-7-3-6-5-7-5-5-7 3-5 9-9 5-2 5-1 6 1z" fill="#C5BDAF"/>
<path transform="translate(728,848)" d="m0 0h33l24 2 31 4 24 4 31 6 41 9 40 8 36 6 13 2-4 2-9 1-54-7-55-8-25-4-11-2-16-2-2-1-47-5v-1l5-1-14-2-14-1h-50l-21 3-16 4-17 6-2-1 9-6 18-7 25-6 14-2z" fill="#2A3335"/>
<path transform="translate(780,729)" d="m0 0 4 1-2 1v2l9 1v-2l5 1 4 2v1l-14 1-19 4-13 4-12 3-16 6-17 9-10 5-5 2v2l-2 1 4-1 1-2 16-8 15-7 17-6 16-4 2-1h8v2l-7 1-4 2 3 1v6l-5 6-8 5-11 2-12 6-12 5-16 6-11 7-7 4-14 10-11 7-17 17h-2v2l-4 1v3h-4l3-9 10-13 11-13 5-7h2l2-4 11-10 7-5 4-4 16-10 7-5 17-8 10-5 20-7 10-3 7-3z" fill="#3D3E3E"/>
<path transform="translate(416,807)" d="m0 0h26l17 1 24 3 20 4 8 3 27 9 1 2 7 3v2l-5-1-24-5-2-1-14-2-18-2h-57l-20 1-50 8-26 4-62 9-19 2h-10v-2l5-2 41-7 86-13 35-4 27-1h21l18 1 5 1 14 1 2 1h12l-27-3-16-2-14-1h-21l-31 2-38 5-5 1h-26l-3-4 6-3 21-3 25-4z" fill="#404141"/>
<path transform="translate(540,902)" d="m0 0h11l4 5v2h2l4 5 10 4 21 2 1 2h-17l-30-2-45-1h-256v-1l21-2 52-2 62-3 46-2 66-4z" fill="#221D1C"/>
<path transform="translate(762,707)" d="m0 0 8 1 5-1h14l7 1 2 4-2 4-6 5-20 6-13 5-5 3-6 1v2h6l-4 2-14 5-5 3-10 4-15 8-21 14h-2l-1 3-14 11-6 7h-2l-2 5-10 11-13 17-1 2h-2l1-5 2-3h2v-4h2v-2h2l2-5 10-11 3-6h2l2-5 9-10 5-3 7-7h3l2-4 4-1 2-4 11-8 7-8v-5l-5-3-9 7-2-1 12-11 7-6 6-5 5-4h2v-2l6-3 11-1 7-2z" fill="#C5BDB0"/>
<path transform="translate(629,93)" d="m0 0h8l5 4 3 5v7l-4 5 1 4 3 4 1 4 5 5 5 10 7 11 1 4h2l2 3v3h2l1 6h3v2l17-5 10-2 6-3h2v3l-12 7-9 5-11 8-10 5h-2v2l-5 2v4l5 1v2l-5 3-2 5h-2l-1-4-2-1v2h-2v2h-2l-2 5-6 10-1 2h-2l-1 4-5 9-1 3h-2l-1 6h-3l-2 5-5 7-1 3h-2l-1 4-2 5-1-4v-3l-2-1v-2h-2l-2-3-10-5-1-2 4 1 15 6 3-12 2-13 6-25 5-17 4-4 16-5 9-3 12-2-1-9h-2l-1-5h-3l-6-11-1-4h-2l-5-9-4-6-1-4-3-3-2-6h-7l-6-3-4-5-1-5 3-8z" fill="#DAF6F6"/>
<path transform="translate(668,905)" d="m0 0h21l10 1 70 3 15 1 134 5 11 1 33 1 4 1 17 1v1h-269l-35 1-14 1h-10l4-4h3l2-6z" fill="#3E302B"/>
<path transform="translate(992,820)" d="m0 0 10 2 3 4v2h2v2h2v2l-4-2-4-5v-2l-5 1 7 10 7 8v2h2l6 7v2h2l7 8 3 5 6 5v2l4 2-1-2-9-10-5-7h3l8 8 5 6 7 8 5 5v2h2l7 8 4 6-4-2-8-7-7-8h-1l7 7v2h2l3 6v3l3 1h-2l1 4h-20l-5-1-7-1v-3l4-1h-7l1 4-20-1-1-2 4-1-13-3v-1h12l21 1-2-1-11-1-3-1-19-1 3-2 1-1-22-3-34-6-39-8-32-7-41-8-35-5-18-2-16-1h-39l-7-1v-2l7-1 38-1 26 1 19 2 10 2 19 3v2l11 1 16 3 13 3 20 4 35 8 23 5 23 4 15 3 14 2 9 2 17 2 6 1 2-4 3-1-5-9-6-5-2-5-4-2-4-6-3-2v-2l-2-1v-3l-6-2-6-8-3-1-4-8-1-3h2l-6-7z" fill="#BABCBB"/>
<path transform="translate(240,819)" d="m0 0 3 1v3l10-1 15-1-3 2h-5v2h6v1l-10 2-4 3h5l-2 4-8 3h10l12-1v2l-7 2-11 2-12 1-2 3h-2l1 5-1 2 16 1v1l-18 2-12 3-2 3h21v1l-9 2-13 3-6 2 2 3h-8l2 6-5 1-1 3-2 1 5 2h14l-1 2-18 2h-8v2h10l-4 2-7 1-3 4 5 1 1-1h44v1l-6 2-9 1-41 1-5 1h-15l-4 2-1 6h-2l1-7h3l2-4 4-6 14-11 6-7 5-4 7-8 11-12 10-10 7-8 10-12 2-1 1-5z" fill="#F8F8F7"/>
<path transform="translate(769,796)" d="m0 0h24l28 2 36 4 4 2 13 2 9 2 11 1 4-1-2-7-3-2 9-2 27 6 6 2 3 6 3 5v2l4 1 3 3v2l3 1v6l-17-3-10-2-7-3-6-2-9-1-10-4h-6l-1-1-8-1v-2l-8 1-1-2-21-5-23-1-9-2-11-1h-28l-5 1-24 1-27 4-17 4-6 1 3-3 27-6 8-3 8-2 22-2z" fill="#545555"/>
<path transform="translate(698,883)" d="m0 0h12l3 3-2 2 19 1 7 1h13l24 3h32l-1-2h10l14 1 4 1 28 1 4 1 35 3v2h17l27 3 28 2v1h-22l-39-2-54-1-73-4-84-4-38-2 4-3 7-3 8-2 15-1z" fill="#221D1B"/>
<path transform="translate(974,204)" d="m0 0 7 1 5 2v2h2l2 4v8l-4 6-4 2-10 1-2 3h-2l-2 4-5 4-4 7-2 3h-2l-2 4-6 8-5 7-3 1 1 4 1 3v7l-4 7-6 2-5-1-5-2-3-5-1-7 2-5 4-3h2v-2h12l2-5 4-2 10-13h2l2-6 8-10h2v-5h4l-1-7h-3v-4l-67 1-9-1-2 5-5 4h-6l-6-7v-7l2-4 4-2h9l5 7h71l6 1 1-5 4-4z" fill="#C8E2E5"/>
<path transform="translate(761,807)" d="m0 0h34l18 1 37 5 52 11 18 4 11 3 15 3 28 7 19 6v2l-9 1-8-1-37-9-82-18-23-4-29-4-27-1h-38l-24 3-13 3h-4v-2l14-4 17-3 16-2z" fill="#2B3536"/>
<path transform="translate(453,690)" d="m0 0 6 2 23 15 10 7 3 2-1 2-4 2-4 1-1 4 5 10 13 12 1 2-4-2-10-8-7-9-2-4v-9l1-4h-2v-4h-2v-2l-4-2-2-2-2 2-8 2-4 4v8l7 9 7 6 3 1 4 4 10 4 9 7 8 4 10 6 3 2v2l-4-1-14-8-14-7-7-2-5-3-1-2-11-5v-2l-4-1-5-2-4-3-7-3-6-5-7-5-5-7 3-5 9-9 5-2 5-1 6 1z" fill="#C5C3BA"/>
<path transform="translate(877,337)" d="m0 0 2 1-1 8h17l1 3-6 2-17 1-5 6-5 10-6 10-11 18-3 5-2 7-3 4-1 5 4 2v2h2l1 4 4 2v3l3 1 5 7 2 1v2l4-2h7l6 4 2 3v8l-3 6-5 3h-9l-6-4-2-4v-8l1-4-2-5-8-9-8-10h-3v-3h2l1-5 9-21 4-7h2v-6l-5 2v2l-14 7h-4l1-4 8-7 21-21 5-2v-2h2v-2h2l2-4 8-7z" fill="#C8E8EB"/>
<path transform="translate(435,836)" d="m0 0h69l20 3 12 2 7 3v1h-5l-1-1h-10l-1-1-23-3h-48l-25 2-42 6-27 5-23 4-42 7-29 4-26 3-6 1h-21v-2l15-3 33-5 31-4 44-7 58-10z" fill="#373A3A"/>
<path transform="translate(776,801)" d="m0 0h28l15 2 5 1 23 1 22 5v2h8v2h8l4 1 9 2 4 2 9 1 6 2 7 3 7 1 3 2v2l2 1-14-1-16-4-46-10-19-3-28-4-18-1h-34l-22 2-20 3-16 4-10 2-12 4-1 1h-5l8-4 3-3 24-8 21-4 16-2 24-1z" fill="#BABCBB"/>
<path transform="translate(455,839)" d="m0 0h48l23 3 5 2-1 3h5l7 3 8 3 6 1v2h-9l-8-4-13-4-1-2-15-3h-49l-19 1-34 4-35 6-39 8-36 6-57 9-24 3-11 2 2-1-2-3v-3l6-1v-3l2-1v2l21-1 21-3 26-3 44-7 27-5 30-5 31-5 29-3z" fill="#C0C2C2"/>
<path transform="translate(732,223)" d="m0 0h16l6 4 3 3 3 7v10l-1 5h-2l-1 4-4 4-6 3-9 1-7-3-6-4-4-7v-14l4-7h2v-2z" fill="#06C8BB"/>
<path transform="translate(419,800)" d="m0 0h36l26 3-2 2-7-1-25-2h-10l2 1v2h23l4 2-72-1v2h9v1l-35 3-28 5-13 2-2 2 3 2 17 1v1l-16 2-17 3-23 3h-10v-2l2-1v-3l10-4 5-1-4-2 4-2 15-2 25-5 27-5 40-5z" fill="#545555"/>
<path transform="translate(476,750)" d="m0 0h5l13 6 28 14 11 7 18 12v2l4 2 15 14 2 4h2l7 8 10 11 9 13-1 2-12-14-20-20-17-16-7-5 4 5 8 6v2l-5-2-9-6-9-4-10-6-10-5-12-5-9-3-6-4v-4l-3-1v-2h-5l-3-3 1-4 2-2z" fill="#585959"/>
<path transform="translate(734,841)" d="m0 0h29l27 2 5 1 21 1 15 3 8 1 5 2h7l21 4v2l5-2 1 1 16 2 1 3 2 1 7 2 45 10 16 3 13 3 28 4 16 3 10 1 4 4-12-1-11-1-13-3-15-2-25-5-19-3-38-9-12-3-20-4-17-3-20-4v-2l-11-1-16-2-2-1-19-2-30-1-34 1-7 1h-12l1-2 20-3z" fill="#525353"/>
<path transform="translate(716,334)" d="m0 0 5 1 2 2h10l3-2 8 1 6 3-2 1-1 6-2 5-3 2-1 4v46l1 3-1 1-2 20h-1v-5h-2l-1-15-15-3-13-2-9-2-18-2h-8v2l5 5 5 3 4 4-1 2-15-11-4-2-10-2-5-6v-6l2-2-1-7-2-6v-3h2l2 5 3 7 7 3 4 6 4 2 21 3 2 1 15 2 9 2 17 2v-41l-1-6-6-6v-5l-2-1v-2l-11-5z" fill="#D3F4F4"/>
<path transform="translate(757,786)" d="m0 0h60v1l-9 1-55 2-1 1h-11v2h2v2l-6 3-12 2-9 4-4 3-17 4-5 3h-2v2h-2v2l-19 8-10 6-3 3-9 5-13 11-4 2v2l-5 2v-2h2l1-4 9-10 8-7 4-2v-2l8-6 15-10 14-8 15-6 16-6 21-5z" fill="#232E2F"/>
<path transform="translate(427,815)" d="m0 0h21l25 2 21 3 12 1-1 2h-12l-2-1-14-1-5-1-18-1h-21l-27 1-35 4-91 14-11 1v-2l-12 2h-12l4-3 6-1v-3l-4-1 5-4 4-2v-2l25-5 11-1v2l-3 1 4 2-10 4-6 1 1 4h-3v2l33-4 17-3 24-3 19-3 24-3z" fill="#BABCBC"/>
<path transform="translate(376,780)" d="m0 0h13l1 2 6 2-1 4 7 1h8l15 3 2 1 22 2v1l-51 1-31 2-12 2h-14l2-3-7-2 1-3 6-1 1-5 5-4 2-1z" fill="#555656"/>
<path transform="translate(469,875)" d="m0 0h42l3 1 18 1 14 2 5 2-2 4-4 2-13-2-1-1h-71l-1 1-51 4-6 1h-13l2-2 11-1 2-1-16-1v-1l38-5z" fill="#3E3E3E"/>
<path transform="translate(623,690)" d="m0 0h1l1 17-2 20-1 14-1 11 1 4 7-12 1-3 3-3h2v2h2l-1 5-1 2 1 4-1 2 2 1v31l-1 3 3-2 1-5-1-2v-8l1-5h1l1 9-1 4h4l1 2-8 13-11 26-5 13-4 10h-1l1-7 6-27 1-14 1-7 1-11-1-10-2-6h-3l-1 6-2 5-1 14h-1v-31l1-4 1-3v-14l2-11v-9l1-10 1-1v-11z" fill="#E0E1E0"/>
<path transform="translate(510,731)" d="m0 0 6 1 11 10 8 7 7 6v2l4 2 7 7v2h2l6 7 4 8 7 8 3 4v2h2l2 5h2l7 13 3 6h-2l-5-8-3-1v-2h-2v-2h-2v-2l-4-1-5-2-1-5-3-5-19-19-7-4-9-8-13-13-5-4-3-7-1-5zm55 71 3 1-1 2z" fill="#B9BBBA"/>
<path transform="translate(335,913)" d="m0 0h23v1l-13 1 36 1 32-1h49l28-1h52l12 3 6 2v1l-59-1h-256v-1l21-2 52-2z" fill="#3E302B"/>
<path transform="translate(762,707)" d="m0 0 8 1 5-1h14l7 1 2 4-2 4-6 5-20 6-13 5-5 3-6 1v2h6l-4 2-14 5-5 3-20 8-3-1 14-8 11-5 9-5 5-3h2l2-5 7-3 2-2v-5l-7-3h-17l-9 2-4-1 3-1v-2l6-3 11-1 7-2z" fill="#C5C3BA"/>
<path transform="translate(433,818)" d="m0 0h21l13 2v1l-33 1-8 1-20 1-50 8-26 4-62 9-19 2h-10v-2l5-2 41-7 86-13 35-4z" fill="#2E3435"/>
<path transform="translate(679,735)" d="m0 0h2v3h-2v3l1-1h11l-2 4-6 6 7-6 2-1-2 4-10 10-9 11-5 6h-2v2h-2l-2 5-11 15-9 14-7 11-3 2 3-10 3-6 1-4 3-8-3 1 2-5 10-17 11-15 12-16z" fill="#C4BDB1"/>
<path transform="translate(483,324)" d="m0 0h6l6 4 1 4 53 1 11 1 3-6 4-3h7l5 5 1 7-3 6-4 3-7-1-5-5-1-2h-63l-5 8-5 2-7-1v-2l-4-2-2-4v-8l2-4z" fill="#CAE7EA"/>
<path transform="translate(600,765)" d="m0 0 4 4 7 16 2 6v20l-1 35h-1v-44l-1-5-1 14v33l-2 1-4-15-6-12-3-3-2-11v-21l3-7h2l1-6z" fill="#BABCBB"/>
<path transform="translate(840,861)" d="m0 0h7l10 2 7 1h7l41 9 40 8 36 6 13 2-4 2-9 1-54-7-15-2-3-1v-2h-10l-1-1-9-1-1-1-9-1-14-4-8-1v-2h-6l-5-1-11-3z" fill="#30393A"/>
<path transform="translate(651,245)" d="m0 0 2 1-3 40v10h2v2h2v2l4 2 2 7 11 4 5 4-2 1-12-5-7-1-5 3-10 3v8l-2 1-2-4-2 1-3-4 1-3 1-2 4-1-9 1h-7l-9 3-12 3-11 3 3 7 3 4v2l-3-1-4-6-3-9 2-3 3-9 1 4-2 5 10-1 13-4-3-2h10l15-5 7-6h2l1-5 1-1 2-27 2-7 1-14z" fill="#D6F4F4"/>
<path transform="translate(668,905)" d="m0 0h21l10 1 70 3 15 1 51 2 19 3v1h-23l-31-1h-13l-2-1h-102l3-2 1-1h-6l-2-1h-6l-3 2v3h-2l-1 4-2-6z" fill="#211714"/>
<path transform="translate(805,891)" d="m0 0h10l14 1 4 1 28 1 4 1 35 3v2h17l27 3 28 2v1h-22l-39-2-54-1-51-3-15-2-29-1v-1h38l17 1v-1l-11-1z" fill="#1C1412"/>
<path transform="translate(157,915)" d="m0 0 2 3 4 1h32l191-1h115l45 1 30 2 86 1v1l-44 1-110-2-120-1h-228l-3-2z" fill="#BCBCB9"/>
<path transform="translate(876,206)" d="m0 0h9l5 7h71l6 1 1-4v3l5-5 4-1 8 2 3 10h-2v3h-2v2l-3 2h-7l-3-2v-2h-2l-2-4v3h-2v-4l-67 1-9-1-2 5-5 4h-6l-6-7v-7l2-4z" fill="#C9E8EB"/>
<path transform="translate(995,823)" d="m0 0h6l6 8 5 3 1 3h2l5 6 3 5 11 11 5 7 5 5 9 10 1 3h2l7 8 9 10 2 3-10 3-44-1-36-2 3-3 4-1 1-2h7l4 1v2h16v-1l6-1-3-2h8l2 1-1 2-3-1v3h10l2 1 20 1-4-11-1-3h-2l-7-8-2-4 7 6 3 3v2l4 2 7 6-10-11v-2h-2l-7-8-6-7v-2l-4-2-7-8-3-2 6 8 9 10 1 3h-2l-7-8-6-5-3-5-4-4v-2h-2l-6-7v-2h-2l-7-9-6-8z" fill="#C3C0B6"/>
<path transform="translate(780,729)" d="m0 0 4 1-2 1v2l9 1v-2l5 1 4 2v1l-14 1-19 4-13 4-12 3-16 6-17 9-10 5-5 2v2l-5 5-11 8-5 2v2h-2l-2 4-5 3h-2v2h-2v2h-2v2h-2l-1 2-2-2 5-7h2l2-4 11-10 7-5 4-4 16-10 7-5 17-8 10-5 20-7 10-3 7-3z" fill="#363736"/>
<path transform="translate(756,844)" d="m0 0 30 1 19 2 10 2 19 3v2l11 1 16 3 13 3 20 4 17 4 2 2 9 2-3 1-16-2-32-7-41-8-35-5-18-2-16-1h-39l-7-1v-2l7-1z" fill="#BABCBC"/>
<path transform="translate(239,821)" d="m0 0 3 1-1 2 2 2-8 8-4 7-11 12-9 10-7 8-9 10-5 2-2 4-7 7-9 7-2 4 10-1 6-1h46v1l-9 1-41 1-5 1h-15l-4 2-1 6h-2l1-7h3l2-4 4-6 14-11 6-7 5-4 7-8 11-12 10-10 7-8 10-12 2-1z" fill="#C5BFB3"/>
<path transform="translate(480,846)" d="m0 0h2v2l4-1h11l13 2v2l7 2v1h-34l-26 2-15 2-43 5-56 10h-5l2-2 6-1 1-3 11 1 1-1h9v-2l9-1v-1l7-2 6-2 19-3 3-1 27-2 31-6h7z" fill="#3F3F3F"/>
<path transform="translate(392,896)" d="m0 0h31l2 2-6 1-67 3-50 3-51 2-39 1h-21l-8-1-1-2 41-1 23-2 27-3 11-1h10v2l13 1h40l1-3 7 1 35-2z" fill="#392A25"/>
<path transform="translate(783,780)" d="m0 0h37v3h17l37 5 13 3 19 3 3 1 12 1 13 4 7 2v2l-8-1-17-4-10-2-20-2-28-5-36-4h-57l-18 2-20 4h-9l4-3 16-4 25-4z" fill="#C6C8C7"/>
<path transform="translate(673,909)" d="m0 0h6l2 1h7l1 2-1 1h97l2 1h24l31 2-2 2h-133l-33 2h-9v2h-10l4-4h3l2-6 2-1 1 5 3-5z" fill="#3A2923"/>
<path transform="translate(787,855)" d="m0 0h12l3 2 7 1v2h10l9 1h8l2-1-3-2 10 1 20 4-1 2-5-1-2 1v-2h-8l-2-1h-6l1 2 12 3 10 2v2h8l14 4 9 1 1 1 9 1 1 1 10 1v2l-16-2-46-7-11-2-16-2-2-1-47-5v-1l5-1-14-2v-1l18-1z" fill="#232D2F"/>
<path transform="translate(1013,335)" d="m0 0h5l4 2v2h2l2 4v8l-4 6-5 2-8-2-2-3 3 1h7l5-2v-2h2l-2-8-2-5h-8l-3 1-2 5-1 6 1 3h-2l-1-4h-85l-2 5-5 3h-8l-4-4-2-7 3-6 3-3 7-1 6 3 2 7h83l3-7 2-2z" fill="#C7E9EC"/>
<path transform="translate(702,735)" d="m0 0 6 3 1 1v5l-9 10-11 8-7 7-7 4-5 6-5 3-7 8-2 4h-2l-2 6-10 11-3 5h-2l-1 2 1-4 6-11 14-19 5-8h2v-2h2l2-4 10-11 14-16 6-4 4-2z" fill="#B7B9B9"/>
<path transform="translate(389,780)" d="m0 0h46l11 1v1l-6 1 7 2 11 1v1l-11 1 16 3 4 3h-8v2h5v1h-9l-15-2-13-1-10-3-12-1h-7l-4-2 1-4-6-2z" fill="#3E3E3E"/>
<path transform="translate(478,883)" d="m0 0h53l1 1 7 1v2h5l-1 2h-14l-3-1-1 1h-21l-2 1-20 1v2l-22 1v1h-30l-9-2v-4h18l10-1 1-1h22l-3-2z" fill="#1F1C1B"/>
<path transform="translate(554,418)" d="m0 0h10l3 2 6 2 1 2v13l-4 6-4 3-8 1-7-3-5-6v-11l3-5z" fill="#80DFDA"/>
<path transform="translate(655,446)" d="m0 0v3l-12 13-1 3h-2l-1 4-1 2h-2v2l-8 7-1 2h-2l-1 4-6 4-1 2h-2l-1 5-4 5v14l-5 5-3 2h-7l-7-6-2-4v-7l7-7 7-1h8l6-7 1-2h2v-2h2v-2h2l2-6 11-10 1-3h2v-2h2l1-3 5-5z" fill="#C8D5D6"/>
<path transform="translate(629,93)" d="m0 0h8l5 4 3 5v7l-4 5 1 4 3 4 1 4 5 5 5 10 7 11 1 4h2l2 3v3h2l4 9 1 5-4-4v-3h-2v-3h-2l-1-5h-3l-6-11-1-4h-2l-5-9-4-6-1-4-3-3-2-6h-7l-6-3-4-5-1-5 3-8z" fill="#CCDFE0"/>
<path transform="translate(416,807)" d="m0 0h26l17 1 11 2 1 1 9 1v2h4v2h-21l-14-1h-46v-2h-10l-27 2h-12l1-2 21-3z" fill="#253133"/>
<path transform="translate(711,763)" d="m0 0h6l-1 2-4 2h-3v2h-3v2h-2l-2 6-11 7-7 2-4 6-12 9-6 4-3 3h-2l-2 4-4 4-2-1-2 4-2 1-5 10-3 1v2l-4 1v3h-4l3-9 10-13 10-12 6-1v-2h2v-2h2v-2l8-5 1-2h2v-2l6-4 11-8 6-3 1-2z" fill="#242D2E"/>
<path transform="translate(540,902)" d="m0 0h11l4 5v2h2l4 5 10 4 21 2 1 2h-17l-16-2-12-4-6-1h-52l-28 1h-55l-33 1 1-2 29-2h26l12-1h16l4 1 22-1 5 1 2-1h62l-2-8h-29v-1z" fill="#3A2923"/>
<path transform="translate(822,887)" d="m0 0 17 1 30 4 6 2 29 3 23 3 52 4 41 2 33 1 6 1v1h-55l-58-2-60-3v-1h25l39 2h10l-16-1-27-3-17-1v-2h-14l-21-2-14-2-3-2-12-1v-2h-12z" fill="#3E302B"/>
<path transform="translate(992,820)" d="m0 0 10 2 3 4v2h2v2h2v2l-4-2-4-5v-2l-5 1 7 10 7 8v2h2l6 7v2h2l7 8 3 5 6 5v2l4 2-1-2-9-10-5-7h3l8 8 5 6 7 8 5 5v2h2l7 8 4 6-4-2-8-7-7-8h-1l7 7v2h2l3 6-1 2-5-2v-3l-5-5v-2l-3 3h-6v-2l3-1-5-9-6-5-2-5-4-2-4-6-3-2v-2l-2-1v-3l-6-2-6-8-3-1-4-8-1-3h2l-6-7z" fill="#C6C3B9"/>
<path transform="translate(872,717)" d="m0 0 13 4 9 2 14 2 4 1 14 4v2l4 1 2 5h2l4 4 1 4-2 1h-12l-5-3-16-5-1-3-5-2v-2l-10-5 2-2-11-3-8-3z" fill="#DFE0DF"/>
<path transform="translate(761,807)" d="m0 0h34l18 1 21 3v1h-8v2h5l3 3h-8l-21-3-27-1h-38l-24 3-13 3h-4v-2l14-4 17-3 16-2z" fill="#373D3E"/>
<path transform="translate(327,859)" d="m0 0h8l-3 2-11 3-54 9-26 4-24 3-11 2 2-1-2-3v-3l6-1v-3l2-1v2l21-1 21-3 20-1 34-5z" fill="#D2D3D3"/>
<path transform="translate(734,715)" d="m0 0h17l8 4v5l-6 5-4 1-2 4-12 7-15 7-8 4v-3l5-3 7-3 6-5 5-1 1-3v-9l-5-1-4-1-8 1h-3-3l4-4 6-3 8-1z" fill="#C6BDAF"/>
<path transform="translate(564,220)" d="m0 0h8l6 5 1 4v12l-4 4-5 2h-7l-6-4-3-6v-8l3-5 4-3z" fill="#7DDED9"/>
<path transform="translate(456,775)" d="m0 0 9 1 8 3 7 1-3 1v2l5-2 7 1 9 4 2 4h6v2h5l5 2v2l7-1v3h5l5 2v2l6 1 10 4 6 5 5 3 6 3 3 3 2 1v2h-5l-11-8-21-11-21-8-31-9-27-5-9-1v-1l9-1-1-2z" fill="#D7D8D7"/>
<path transform="translate(291,817)" d="m0 0h5v2l-3 1 4 2-10 4-6 1 1 4h-3v2h5l1 4-16 2v-2l-12 2h-12l4-3 6-1v-3l-4-1 5-4 4-2v-2l25-5z" fill="#BABCBC"/>
<path transform="translate(261,893)" d="m0 0 6 1-1 4 9-2h17v1l-15 1-4 2-27 3h-13v-1h-39-3l-3-1 2-4 5-2h25l7-1v2l10-1z" fill="#C3C2BA"/>
<path transform="translate(431,797)" d="m0 0h17l24 2 21 3 26 7 11 5 16 6 9 4 11 6 14 9 7 7 2 1v2l-4-2-9-7-11-7-24-11-15-6-11-4-28-7-22-3-10-1-69-1v-1z" fill="#D5D7D6"/>
<path transform="translate(595,337)" d="m0 0 5 4 5 12 4 6 9 19 2 4v4l3 1 7 12 9 19 3 5 4 3 16 5 19 6 13 4v2l-9-2-13-4-4 1-7 6h-2v2h-2l-1 4-12 13-2-1 13-14v-4l3-1 1-3 3-2-1-4-7-3-10-3-6-5-7-16-9-16-2-1-8 4-6 5-3 1-5 5-9 5-2-1 5-5h2v-2l6-1 1-5h3l1-3 7-3 3-5h2l-3-9-8-16-7-13-2-5z" fill="#D2F3F3"/>
<path transform="translate(469,875)" d="m0 0h42l3 1 18 1 14 2 3 2v2l-36-2h-63l-16 2h-13l1-2h9v-2l14-2z" fill="#262A2A"/>
<path transform="translate(715,849)" d="m0 0h6v2l-10 1v2l8-2 12 1v-2h6l1 3h10l18 3v1h-61l-21 3-16 4-17 6-2-1 9-6 18-7 25-6z" fill="#454848"/>
<path transform="translate(679,735)" d="m0 0h2v3h-2v3l1-1h11l-2 4-6 6 7-6 2-1-2 4-10 10-7 8-4 1v-4h-2-4l-2 4-2 5h-2l-2 9-1-2h-2l-1-7 21-28z" fill="#C5C3B9"/>
<path transform="translate(903,827)" d="m0 0h11l17 4 15 3 28 7 19 6v2l-9 1-8-1-37-9-10-2v-3h-5v-2l-3 1-5-1v-2l-3 1-7-1v-2l-3-1z" fill="#333838"/>
<path transform="translate(419,800)" d="m0 0h36l26 3-2 2-7-1-25-2h-10l2 1v2h23l4 2-72-1v2h9v1h-35l-13 2h-11l2-2 32-5 25-3z" fill="#4F5050"/>
<path transform="translate(830,270)" d="m0 0h1l2 21 6 9 9 8 16 4 7 3 9 3v2h-8l-17-6h-7l-3 8-1 2h-2l-1 4 1-9 1-1 1-8h-3l-3-3v-2l-5 2-2 6-4-2-8-1-1-5-3-3 1-2 1 1h7l2-5 3-2z" fill="#D5F4F4"/>
<path transform="translate(394,891)" d="m0 0h5l-2 4-7 3-37 2-5-1-1 2-14 1h-32l-7-2v-3l8-1 22-1v3l20-1 1-1 15-2 17-1 4-1h11z" fill="#221D1C"/>
<path transform="translate(758,804)" d="m0 0h40l25 2 27 4 25 5 12 3 14 3 18 4 6 2v1h-11l-35-8-29-6-30-4-5-2-19-1h-55v-1z" fill="#DCDDDD"/>
<path transform="translate(553,815)" d="m0 0 5 2 10 7 13 10 12 13 1 6h2l-1 2-15-8-14-9-21-8-5-3 2-1 4 1v2l9 1-2-1 1-2 16 8 14 10 5 4v-2l-4-2-9-8-17-10-10-5-3-2h7z" fill="#2C2E2D"/>
<path transform="translate(1020,845)" d="m0 0 5 2 11 11 9 11 7 8v2l4 2 9 9 4 5 5 5 7 9v4h3l1 3 6 2-1 2-9 1h-182v-1l179-1 1-8-15-16-7-8-1-3h-2l-7-8-6-7v-2l-4-2-7-9-10-10z" fill="#C6C3B9"/>
<path transform="translate(892,863)" d="m0 0 16 2 41 9 16 3 13 3 28 4 16 3 10 1 4 4-12-1-11-1-13-3-15-2-25-5-19-3-38-9-9-2z" fill="#3E3F3F"/>
<path transform="translate(855,887)" d="m0 0h9l13 2 39 3 4 1 16 1 14 2h2l10 1 4 1h12v2h10v1l-7 1-1 1h-29l-16-2v-2h-11l1-2-10-2-17-1-44-5z" fill="#C3C1B9"/>
<path transform="translate(412,836)" d="m0 0h14v2l-36 5-102 17h-18v-1l26-3v-2l27-4 13-3 19-2 27-4 12-2 2-1z" fill="#C3C5C4"/>
<path transform="translate(840,861)" d="m0 0h7l10 2 7 1h7l22 5 1 3h8l3 1 13 3 1 3-3 1h-10l-1-1-9-1-1-1-9-1-14-4-8-1v-2h-6l-5-1-11-3z" fill="#1E2A2C"/>
<path transform="translate(651,245)" d="m0 0 2 1-3 40v10h2v2h2v2l4 2 2 7 11 4 5 4-2 1-12-5-11-1-5-4v-2l-8 3-4-1 4-2 1-5 4-1 1-5 1-1 2-27 2-7 1-14z" fill="#D9F6F6"/>
<path transform="translate(334,830)" d="m0 0 5 1v2l-12 1-9 2-1 2-49 7-19 2h-10v-2l5-2 41-7 12-2 19-1 9-1z" fill="#323434"/>
<path transform="translate(762,707)" d="m0 0 8 1 5-1h14l7 1 2 4-2 4-6 5-20 6-8 2 1-3 11-5h6l2-5-8-3h-20l-12-1-6 2v-3l12-3z" fill="#BABCBB"/>
<path transform="translate(681,808)" d="m0 0 2 1-3 6-5 2v2l4 2-12 5-10 6-3 3-9 5-13 11-4 2v2l-5 2v-2h2l1-4 9-10 8-7 4-2v-2l8-6 15-10z" fill="#2C3435"/>
<path transform="translate(1175,882)" d="m0 0 6 1 4 1v10l-1 3h3l1 4-5 5-6 5-12 5-12 2-20 2-1-2 5-2 16-2 15-5 4-2 3-6-1-18z" fill="#E0E1E0"/>
<path transform="translate(157,915)" d="m0 0 2 3 4 1h32l191-1 54 1v2h-280l-3-2z" fill="#BFBDB7"/>
<path transform="translate(501,761)" d="m0 0 5 1 16 8 11 7 18 12v2l4 2 15 14 2 4h2l7 8 10 11 9 13-1 2-12-14-20-20-17-16-13-10-7-6-9-6-3-1v-2l-4-1-11-6z" fill="#2F2E2E"/>
<path transform="translate(747,803)" d="m0 0h22v1l-18 2h45l19 1 3 2-23-1h-34l-22 2-20 3-16 4-10 2-12 4-1 1h-5l8-4 3-3 24-8 21-4z" fill="#BABCBC"/>
<path transform="translate(904,589)" d="m0 0 4 1v2l-10 4h-3l-1 2h-4v2h-5l-1 2-8 3-7 3-10 4-14 7-12 5h-3v2l-7 2v2h-4v2h-4l-1 2-13 7h-2v2l-5 2-5 3-3-1 9-7h3l1-2 15-8 4-3h3l1-2 7-3 7-4 8-3 10-5 12-5 8-4 9-2 1-2 14-5z" fill="#DCDEDD"/>
<path transform="translate(483,747)" d="m0 0 6 1 16 8 11 7 11 6 8 4 9 7 2 1v2l5 2 11 10 2 1v2h2v2h2l-1 3-5-3-11-9v-2l-5-2-10-7-11-7-10-6-17-8-10-5-1-2-5-2z" fill="#D9DAD9"/>
<path transform="translate(701,758)" d="m0 0h2v3l-14 9-6 4h-2l-1 3-14 11-6 7h-2l-2 5-10 11-13 17-1 2h-2l1-5 2-3h2v-4h2v-2h2l2-5 10-11 3-6h2l2-5 9-10 5-3 7-7h3l2-4h2l-1 4 12-9z" fill="#C4BFB4"/>
<path transform="translate(941,624)" d="m0 0h5l-1 4-10 2-21 5-12 2-5 2-18 5-18 6-7 2-10 3-7 3h-4v2l-10 1 4-4 25-8 7-3 7-2h5v-2l16-4h3l1-2 4-1 2-1 5-1 8-1 1-1 8-1 1-1h5l1-2 12-2z" fill="#D7D8D8"/>
<path transform="translate(1012,337)" d="m0 0h6l4 4 2 4v6h-2v2l-5 3h-7l-7-3-1-3-81 1-4 3 2-6h83l3 3v2h2l-2-3 1-6 3-5z" fill="#D9F5F5"/>
<path transform="translate(317,858)" d="m0 0h9v1l-44 7-41 5-6 1h-21v-2l15-3 33-5 26-3h5v2l-11 1-8 1-6 1 1 1 16-2 10-1 4-1 9-2z" fill="#2C2C2C"/>
<path transform="translate(716,334)" d="m0 0 5 1 2 2h10l3-2 8 1 6 3-2 1-1 6-2 5-3 2-1 4-1 19h-2v-15h-2l-1-6-6-6v-5l-2-1v-2l-11-5z" fill="#D4F4F4"/>
<path transform="translate(551,886)" d="m0 0 4 1 7 3v2h-2l1 6 2 6 5 3 13 3 12 2h17l8-1h10l19-3 7-2 2-4 1 2-1-7 1-3h3v8l-1 6-7 3-21 3-9 1h-35l-20-4-8-5-1-13-9-4v-2z" fill="#3A2923"/>
<path transform="translate(383,885)" d="m0 0 3 1-3 3-3 1 1 3-4 1-17 1-15 2-1 1h-20v-3l-3 1h-9v-1l57-8z" fill="#202829"/>
<path transform="translate(750,101)" d="m0 0h7l4 2 3 5v7l-5 6-2 1h-8l-6-7v-8l5-5z" fill="#80DFDA"/>
<path transform="translate(805,850)" d="m0 0 11 1 16 3 26 5 10 2 13 1 30 7 2 2 9 2-3 1-16-2-32-7-41-8-28-4v-2z" fill="#D1D2D2"/>
<path transform="translate(476,852)" d="m0 0h40l1 2h-34l-26 2-15 2-43 5-56 10h-5l2-2 6-1 1-3 11 1 1-1h9v-2l14-1 14-3 26-4 14-2 13-2z" fill="#555656"/>
<path transform="translate(831,353)" d="m0 0h1l-1 9-2 3-3 9-1 11 2 6-4 8-2 2h-11l-6 1 3-5-3-1 1-2 5-1 1-4 2-3 6-3 9-22z" fill="#D8F6F6"/>
<path transform="translate(751,222)" d="m0 0 6 1 6 7 2 5v12l-2 7-4 8v3l-7 2-9 3h-8l-13-5-6-12v-4h2l5 8v2l5 2 8 4h7l12-6 5-7 1-3v-14l-1-4h-2v-3l-4-2z" fill="#D7F5F5"/>
<path transform="translate(473,916)" d="m0 0h51l21 1 15 2v1l-59-1h-131v-1l15-1h41z" fill="#555656"/>
<path transform="translate(995,823)" d="m0 0h6l6 8 5 3 1 3h2l5 6 3 5 11 11 3 4-1 2-9-9v2l11 13 4 5-2 1-7-8-6-5-3-5-4-4v-2h-2l-6-7v-2h-2l-7-9-6-8z" fill="#C9B5A2"/>
<path transform="translate(863,441)" d="m0 0 8 1 3 2 1 3v7l-3 5-3 2h-10l-4-5v-10l5-4z" fill="#80DFDA"/>
<path transform="translate(468,832)" d="m0 0h16l21 1 3 1 16 2 4 1v2l-17-1-7-1h-78l-14-1v-1l28-2z" fill="#C5C6C6"/>
<path transform="translate(766,850)" d="m0 0 29 1 40 6v2l4 1-3 2h-10l-14-1-3-1v-2h-8l-2-2h-10l-2-1v2h5v1h-10l-1-4-16-2z" fill="#1F1C1B"/>
<path transform="translate(877,337)" d="m0 0 2 1-1 8h17l1 3-6 2-18 1h-4-2v2h-2v2l-11 9-17 17h-2v2h-2v2l-5 2 1-4 8-7 21-21 5-2v-2h2v-2h2l2-4 8-7z" fill="#D8F4F4"/>
<path transform="translate(388,847)" d="m0 0h7l4 2-19 4-32 6-14 3h-7v-1l5-1-10 1-31 5-15 2h-9v-1l42-6 39-7z" fill="#C4C6C6"/>
<path transform="translate(783,780)" d="m0 0h37l1 4h-41l-12 1-11 2-21 3-9 2h-9l4-3 16-4 25-4z" fill="#E0E1E0"/>
<path transform="translate(435,836)" d="m0 0h69l20 3 12 2 7 3v1h-5l-1-1h-10l-1-1-23-3-55-1-22-1v-1z" fill="#283233"/>
<path transform="translate(786,736)" d="m0 0h13l-1 3-25 4-16 4-15 4-16 6-22 10-4 3h-3l-2 4-4-1 3-1v-2l12-7 19-9 12-5 12-4 16-4 10-3z" fill="#BCBEBC"/>
<path transform="translate(539,885)" d="m0 0 7 2 2 2-1 1-7 1-53 3-42 3h-20v-1l9-2h25v-1h23v-2l20-2 2-1h21l1-1h8v1h9l-4-1z" fill="#3A2923"/>
<path transform="translate(679,758)" d="m0 0h2l-2 7-3 6-5 4-2 4-8 7-5 8h-2l-2 6-10 11-3 5h-2l-1 2 1-4 6-11 14-19 5-8h2v-2h2l2-4z" fill="#535353"/>
<path transform="translate(338,845)" d="m0 0h7l-2 2-26 5-26 4-42 5-23 1 1-2 9-2 28-2 29-4 18-3 23-3z" fill="#515252"/>
<path transform="translate(597,500)" d="m0 0 4 1 5 3 2 3-1 7-1 3-6 3-7-1-3-5v-2l-4 1v-7l3-1h2l2-3z" fill="#D6F3F4"/>
<path transform="translate(490,914)" d="m0 0h52l12 3 2 2-32-2h-51l-54 1h-45v-1l7-1 32-1h49z" fill="#3E3E3E"/>
<path transform="translate(707,917)" d="m0 0h64l86 1v1l-143 1-49 1v-1l22-2z" fill="#555656"/>
<path transform="translate(702,762)" d="m0 0h2l-1 4-7 4h-2v2l-5 5-11 8-5 2v2h-2l-2 4-5 3h-2v2h-2v2h-2v2h-2l-1 2-2-2 5-7h2l2-4 11-10 7-5 4-4 14-9z" fill="#323434"/>
<path transform="translate(486,880)" d="m0 0h27l24 1 12 2v-2h2l-2 4-4 2-13-2-1-1h-71l-1 1h-19l-1-2 15-1 5-1z" fill="#575857"/>
<path transform="translate(540,902)" d="m0 0h11l4 5v2h2l4 5 10 4 21 2 1 2h-17l-16-2-12-4-13-2-44-1v-1h62l-2-8h-29v-1z" fill="#352C29"/>
<path transform="translate(365,821)" d="m0 0h17v2l-25 3-51 8-13 2h-8l-1-3 42-6 3-1 24-3z" fill="#BBBDBD"/>
<path transform="translate(394,806)" d="m0 0h67l18 2 31 7 26 9v2l-8-1-20-7-5-2-20-4-24-3-17-1h-48z" fill="#BBBDBD"/>
<path transform="translate(924,272)" d="m0 0h7l5 5v7l-2 5 1 3-6 2-5-1v-1h8v-2l-8 1-3-2-2-4v-9z" fill="#D7F0F0"/>
<path transform="translate(849,851)" d="m0 0 18 3 5 1v2l5-2 1 1 16 2 1 3 2 1 1 2h-5l-2 1-20-4-17-3-14-3v-1h6v-2z" fill="#555656"/>
<path transform="translate(442,830)" d="m0 0h45l3 1h20l14 3v2l-16-1-3-1-21-1h-16l-46 2-18 2h-11v-1l10-1 2-1 13-1 15-2z" fill="#4F5050"/>
<path transform="translate(780,729)" d="m0 0 4 1-2 1v2l9 1v-2l5 1 4 2v1l-14 1-19 4-9 2-5-1-8-1 3-2 11-3 6-3 6-2z" fill="#545555"/>
<path transform="translate(544,903)" d="m0 0h5l1 3-2 3-8-1-4-2h-11l-8 2-24 1-26 2-8-1v-2h16v-2l34-2z" fill="#241916"/>
<path transform="translate(1013,335)" d="m0 0h5l4 2v2h2l2 4v8l-4 6-5 2-8-2-2-3 3 1h7l5-2v-2h2l-2-8-2-5h-8l-3 1-2 5-1 6 1 3h-2l-1-4h-27l-49-1v-1l50-1h24l3-7 2-2z" fill="#C3D7D8"/>
<path transform="translate(673,887)" d="m0 0 3 1-1 1h-5v2l10-2 40 2 6 2v1l30 1 4 2h-16l-82-4 4-3z" fill="#3A2923"/>
<path transform="translate(240,819)" d="m0 0 3 1v3l10-1 15-1-3 2h-5v2h6v1l-10 2-4 3h5l-2 4-8 3h10l12-1v2l-7 2-11 2-13 1 2-5 1-3 3-1 5-5h2v-2l2-1-2-2-9 4-3 1v2l-2-1 5-5-2-3-1-1-1-2z" fill="#DFDFDF"/>
<path transform="translate(822,887)" d="m0 0 17 1 30 4 6 2 29 3 23 3 42 3v1h-25l-27-3-17-1v-2h-14l-21-2-14-2-3-2-12-1v-2h-12z" fill="#4D4D4C"/>
<path transform="translate(976,207)" d="m0 0 9 2 3 10h-2v3h-2v2l-3 2h-7l-4-4-1-9 4-5z" fill="#F9FCFB"/>
<path transform="translate(504,806)" d="m0 0 8 1 17 6 11 5 14 5 13 8 9 5 10 9 3 2v2l-4-2-9-7-11-7-24-11-15-6-11-4-17-4v-1z" fill="#BBBDBD"/>
<path transform="translate(464,819)" d="m0 0h8l5 1 14 1 2 1h12l5-1 15 5 7-1 6 2 1 2 7 3v2l-5-1-24-5-2-1-14-2-18-2-49-1v-1l30-1z" fill="#575959"/>
<path transform="translate(730,480)" d="m0 0h5v2h3l2 3v9l-4 4h-7l-5-2-2-5v-5l2-2h3v-2z" fill="#80DFDA"/>
<path transform="translate(690,910)" d="m0 0h23l70 2v1l-36 1h-64l3-2z" fill="#201E1D"/>
<path transform="translate(650,369)" d="m0 0h2l2 5 3 7 7 3 2 2v12l-1 2h-7l-5-4-2-3v-6l2-2-1-7-2-6z" fill="#D0F3F3"/>
<path transform="translate(343,852)" d="m0 0h2v2l-6 2-7 2-24 2-12 2-1 1-13 1-14 2v-3l11-1 12-2 2 1v-3l31-5z" fill="#262727"/>
<path transform="translate(291,855)" d="m0 0h5l-3 2-15 2 1 2-37 5-11 1 3-2h-17l2-1 2-4 6-1v2l22-1 27-3z" fill="#BABCBB"/>
<path transform="translate(504,790)" d="m0 0h2v2h5l5 2v2l7-1v3h5l5 2v2l6 1 10 4 6 5 5 3 6 3 3 3 2 1v2h-5l-11-8-21-11-21-8-8-3-5-2z" fill="#D3D5D4"/>
<path transform="translate(629,97)" d="m0 0h9l3 3v10l-2 3-10 1-4-4v-9z" fill="#D4EDED"/>
<path transform="translate(380,911)" d="m0 0h48v1l-24 2-30 2h-45v-1l29-2 3-1z" fill="#201815"/>
<path transform="translate(710,793)" d="m0 0h5v2l-18 7-13 5-19 11-11 8-4 3h-3l2-4 10-8 13-8 16-8 15-6z" fill="#DEDFDF"/>
<path transform="translate(583,410)" d="m0 0h4v3l-7 4-2 3h-3v19l-4 6-6 3h-10l-7-4-4-6-1-9 5-9 6-4h9l5 2 5-1 5-3zm-29 8-7 6-1 3v11l5 6 7 3 8-1 6-5 2-4v-13l-2-3-6-2-2-1z" fill="#D4F4F4"/>
<path transform="translate(595,337)" d="m0 0 5 4 5 12 4 6 9 19 2 4v4l2 1-12 9-7 4-5 5-9 5-2-1 5-5h2v-2l6-1 1-5h3l1-3 7-3 3-5h2l-3-9-8-16-7-13-2-5z" fill="#C9E3E5"/>
<path transform="translate(246,875)" d="m0 0h7v3l-8 1-10-1v4l-7 1 13 1v1l-35 3 1-2-3-3 13-4z" fill="#2C3334"/>
<path transform="translate(974,204)" d="m0 0 7 1 5 2v2h2l2 4v8l-4 6-4 2-10 1-2 3h-2l-2 4-4 3 4-8-1-4h4l-3-8 1-4 2 6h2v2l3 1h7l3-1v-2h2l1-4-2-9-12-1-2 4-3 1 1-6z" fill="#CEE0E1"/>
<path transform="translate(461,842)" d="m0 0h49l15 3 1 3 3 1h-12l-2-1-12-1-3-1-15-1-43-1v-1z" fill="#4F5050"/>
<path transform="translate(673,909)" d="m0 0h6l2 1h7l1 2-1 1 11 1v1l-11 2-19 3h-4v2h-10l4-4h3l2-6 2-1 1 5 3-5z" fill="#1E2C2E"/>
<path transform="translate(484,327)" d="m0 0 7 1 2 3v9l-4 4-6 1-5-4-1-7 2-5z" fill="#D9F5F6"/>
<path transform="translate(294,792)" d="m0 0 2 1v2h-3l-2 5h-2v2h-2v6l-1 2 3 1h-2v2l7-1h17v2l-13 3h-6l3-2-13 1-7-2 1-7 9-6 6-5 1-2h2z" fill="#E0E1E0"/>
<path transform="translate(394,891)" d="m0 0h5l-2 4-7 3-37 2-2-2 3-3 6-1 17-1 4-1h11z" fill="#201B1A"/>
<path transform="translate(749,99)" d="m0 0 11 1v2h2v2h2l2 4v8l-4 6-4 2h-6l-3 9-4 10h-3v-6h2l2-9v-6l-4-5v-13zm1 2-6 4-1 2v8l6 7h8l6-5 1-2v-7l-3-5-4-2z" fill="#D0F2F2"/>
<path transform="translate(564,218)" d="m0 0h7l6 3 4 8 2 11 6 3 2 4-7-1-6-1-5 3h-11l-5-3v-2l-4-2-2-11 5-8zm0 2-6 3-3 3-1 3v8l4 7 5 3h7l6-3 3-3v-12l-2-5-5-4z" fill="#D4F4F4"/>
<path transform="translate(419,800)" d="m0 0h36l26 3-2 2-7-1-25-2h-10l2 2-7 1h-37l1-2 20-2z" fill="#3B3C3C"/>
<path transform="translate(912,870)" d="m0 0 12 2 28 6 23 4 12 3v1h-11l-34-6-30-6v-1h8l-7-1z" fill="#C0C1C1"/>
<path transform="translate(426,823)" d="m0 0h56l3 1 26 3 12 3 7 1-4 2-7-1-17-3-17-2-5-1-46-1-8-1z" fill="#ECEDEC"/>
<path transform="translate(392,896)" d="m0 0h31l2 2-6 1-67 3-19 1 1-2h13l1-3 7 1 35-2z" fill="#3A2923"/>
<path transform="translate(290,842)" d="m0 0h11l1 2-9 1-1 1h-9v2l-19 3h-27v-2l2-1h20v-2h17v-2z" fill="#E0E1E0"/>
<path transform="translate(987,885)" d="m0 0 13 1 13 3 17 2 6 1 1-2 2 4h5l-2 2h-13l-2-1-11-1-3-1-19-1 3-2 1-1-16-2v-1z" fill="#BCBEBD"/>
<path transform="translate(484,812)" d="m0 0 13 2 7 2 16 5 10 4-2 2-9-2-9-3-16-1-21-3v-1l15 1 1-3-5-2z" fill="#404444"/>
<path transform="translate(1080,914)" d="m0 0 1 2 3 1v2l-3 2h-182v-1l179-1z" fill="#C5BDAF"/>
<path transform="translate(496,883)" d="m0 0h35l1 1 7 1v2h5l-1 2h-14l-3-1-1 1-17-1-13-2z" fill="#191412"/>
<path transform="translate(872,812)" d="m0 0h5v2h8l4 1 9 2 4 2 9 1 6 2 7 3 7 1 3 2v2l2 1-14-1-2-2 1-1-16-4-11-3-16-3-7-2z" fill="#BABCBC"/>
<path transform="translate(412,836)" d="m0 0h14v2l-36 5-23 4-15 1-10 2-4-1 5-2 39-6 12-2 2-1z" fill="#D5D6D6"/>
<path transform="translate(735,191)" d="m0 0h8l4 3h-2l-2 6v16l6 3v1h-16l4-4v-14l-3-6-2-3z" fill="#DBF6F6"/>
<path transform="translate(568,803)" d="m0 0 5 1 4 2v2h2v2h2v2l4 1 4 6v2h2l1 8h2v4l-3-1-7-8-9-10-1-3h-2l-4-5z" fill="#C0BDB6"/>
<path transform="translate(652,827)" d="m0 0 1 2h2 3l2 1-6 5-9 5-13 11-4 2v2l-5 2v-2h2l1-4 9-10 8-7 4-2v-2z" fill="#323737"/>
<path transform="translate(638,795)" d="m0 0h2l-3 10-2 6-4 11 4-4-1 6-3 2-1 7-1-3-3 1-4 7-2-4 3-5 6-16 7-16z" fill="#BABAB8"/>
<path transform="translate(532,804)" d="m0 0 6 2 15 8 1 4-3 3-11-2-11-5-1-3h5l8 3h2l-4-3-10-2 1-3h2z" fill="#293132"/>
<path transform="translate(769,858)" d="m0 0h13l42 6 9 3 1 2h-7l-2-1-47-5v-1l5-1-14-2z" fill="#555656"/>
<path transform="translate(339,751)" d="m0 0 2 2-5 5-6 5-1 7 7 3 12 1 3 2 5 1-2 2h15v1l-11 1h-9v-2h-21l4-2-5-5-1-7 5-7 4-2z" fill="#E0E1E0"/>
<path transform="translate(538,755)" d="m0 0 8 6 15 16 14 18v2h2l2 5h2l7 13 3 6h-2l-7-10v-2l-2-1-1-5h-2l-9-12-9-10-5-6v-2h-2l-14-16z" fill="#555656"/>
<path transform="translate(678,774)" d="m0 0 2 1-5 6-10 8-5 6h-2l-2 5-10 11-13 17-1 2h-2l1-5 2-3h2v-4h2v-2h2l2-5 10-11 5-5 9-10 7-7z" fill="#C5C5C1"/>
<path transform="translate(858,786)" d="m0 0 16 2 13 3 19 3 3 1 12 1 13 4 7 2v2l-8-1-17-4-19-3-12-3-9-1-2-1-15-2z" fill="#E0E1E0"/>
<path transform="translate(941,624)" d="m0 0h5l-1 4-10 2-21 5-12 2-5 2-6 2-5-1 1-2h3l1-2 4-1 2-1 5-1 8-1 1-1 8-1 1-1h5l1-2 12-2z" fill="#D3D4D3"/>
<path transform="translate(460,883)" d="m0 0h18l-3 4-3 1h-22l-1 1-18 1-12-2v-1l40-3z" fill="#1E2B2D"/>
<path transform="translate(198,885)" d="m0 0 7 3h14l-1 2-18 2h-8v2h10l-4 2-7 1-3 4 5 1 1-1h44v1l-5 1-23 1h-26l4-7 2-2 2-5 5-1v-3z" fill="#E0E1E0"/>
<path transform="translate(417,838)" d="m0 0h31l7 1v1l-25 2-21 3h-8l4-2 1-1h-11v-1z" fill="#3E4344"/>
<path transform="translate(540,826)" d="m0 0 6 1v2l9 1-2-1 1-2 16 8 14 10 3 3 5 1 1-2 1 6h2l-1 2-15-8-14-9-21-8-5-3z" fill="#444"/>
<path transform="translate(751,810)" d="m0 0h45l1 1 19 1 18 4v1h-8l-21-3-27-1h-42l3-2z" fill="#555656"/>
<path transform="translate(1036,865)" d="m0 0 5 2 8 10 5 5v2h2l7 8 9 10 2 3-6 2-4-1-1-3-2-1h2l-1-2-4-1-3-6v-2h-2l-7-8-2-4 7 6 3 3v2l4 2 7 6-10-11v-2h-2l-7-8-6-7v-2l-4-2z" fill="#C5BCAF"/>
<path transform="translate(373,826)" d="m0 0h14v1l-25 4-28 4-11 2h-6l1-2 12-2h9v-2l-12 1-6 1-7 1h-8v-1l39-6 3 1-7 1v2l19-2z" fill="#393F40"/>
<path transform="translate(788,911)" d="m0 0h25l22 1 19 3v1h-23l-31-1h-13l-2-2z" fill="#261B17"/>
<path transform="translate(907,338)" d="m0 0h5l4 9v6l-7 3-4-2-3-3-1-5 3-5z" fill="#80DFDA"/>
<path transform="translate(261,893)" d="m0 0 6 1-1 4 9-2h17v1l-15 1-4 2-10 1h-22v-1l10-1-8-1v-1l-5-1v-1z" fill="#C6C4BC"/>
<path transform="translate(711,819)" d="m0 0h9l-3 2-15 3-12 3-6 3-9 3-12 6-16 9-5 4-2-1 7-6h2v-2l16-9 7-4 5-2h5l2-2 17-5z" fill="#535454"/>
<path transform="translate(643,123)" d="m0 0 6 5 7 13 7 11 1 4h2l2 3v3h2l4 9 1 5-4-4v-3h-2v-3h-2l-1-5h-3l-6-11-1-4h-2l-5-9-4-6-2-5z" fill="#D5D6D5"/>
<path transform="translate(665,389)" d="m0 0 5 2 9 2 8 2 5 3v1l-20-1v2l5 5 5 3 4 4-1 2-15-11-5-3-6-1v-1h7z" fill="#D3F3F4"/>
<path transform="translate(746,808)" d="m0 0 50 1v1l-45 1-12 1-15 3-19 3-6 1v-2l14-4 17-3z" fill="#3E4040"/>
<path transform="translate(855,887)" d="m0 0h9l13 2 39 3 4 1 16 1 14 2-1 2-27-2-7-1-17-1-44-5z" fill="#E0E1E0"/>
<path transform="translate(826,812)" d="m0 0h15l19 3 7 3v2l2 1-1 1h-5l-1-1-8-1-1-2h-13l-8-2-6-2z" fill="#272E2F"/>
<path transform="translate(657,894)" d="m0 0h3v8l-1 6-7 3-21 3-9 1h-15l3-3 8-1h10l19-3 7-2 2-4 1 2-1-7z" fill="#3B2D28"/>
<path transform="translate(892,863)" d="m0 0 16 2 41 9-4 3-7-1-31-7-13-3z" fill="#3C3F3F"/>
<path transform="translate(444,852)" d="m0 0m-5 1h5v2l-18 2-21 4-11 1-12 3-5-1v-1l7-2 6-2 19-3 3-1z" fill="#3E3E3E"/>
<path transform="translate(273,838)" d="m0 0h15l-6 3h-8v3l-25 3h-10v-2l5-2z" fill="#2B2B2B"/>
<path transform="translate(646,295)" d="m0 0 5 2 5 7-1 5-5 2-4-3v-2l-8 3-4-1 4-2 1-5 4-1v-3z" fill="#FAFCFB"/>
<path transform="translate(348,890)" d="m0 0h8v1h-5v2l4 2-1 1-9 1-1 1h-20v-3l-3 1h-9v-1z" fill="#3B2F2A"/>
<path transform="translate(371,823)" d="m0 0h26v1l-8 1-1 1-15 1-13 3-7 1h-12v-2l16-4z" fill="#262827"/>
<path transform="translate(256,868)" d="m0 0h9l-4 2-11 2-1 1-14 1-13 2-1 1-9 2h-5l-1-4 6-1v-3l2-1v2l21-1z" fill="#BABCBB"/>
<path transform="translate(758,804)" d="m0 0h40l25 2 9 2v1h-14l-3-1-19-1h-55v-1z" fill="#E8E8E7"/>
<path transform="translate(734,338)" d="m0 0h9l2 1 1 4-3 7-3 2-7-1-3-8 2-4z" fill="#FDFDFC"/>
<path transform="translate(938,869)" d="m0 0 7 1 8 1 9 3 16 3 17 3v2h-9l-18-3-12-3-20-4-3-2z" fill="#BEC0C0"/>
<path transform="translate(484,711)" d="m0 0 6 1 5 4-1 2-4 2-4 1-1 4 5 10 13 12 1 2-4-2-10-8-7-9-2-4v-9l1-2h3z" fill="#BABCBB"/>
<path transform="translate(643,306)" d="m0 0h3v2l4 2 3 3-9 4-4 1v8l-2 1-2-4-2 1-3-4 1-3 1-2 4-1-4-1 8-4z" fill="#BDEEED"/>
<path transform="translate(722,845)" d="m0 0h32l24 1 4 2h-21l-39 1-7-1v-2z" fill="#CBCCCC"/>
<path transform="translate(327,859)" d="m0 0h8l-3 2-11 3-42 7-4-1 3-1-2-2 34-5z" fill="#D7D8D8"/>
<path transform="translate(804,868)" d="m0 0h16l1 1 17 2 13 2h10l12 2 1 3-2 1h-10l-11-2v-2l-18-2-2-1-27-3z" fill="#BDBFBF"/>
<path transform="translate(683,855)" d="m0 0h3v2l-3 1 4 1v-2l10 1v1l-16 3-9 2-15 5-8 2 4-4 12-6z" fill="#3D4242"/>
<path transform="translate(736,392)" d="m0 0h1v11l-6 1v1h-8l-16-3-15-3-5-4h6l2 1 15 2 9 2 17 2z" fill="#CBF1F1"/>
<path transform="translate(742,143)" d="m0 0h3v4l6 2 9 5v2l4 1 2 1v2l4 1v3l-9-5-8-5-11-7h-6l-16 9-11 6 2-4 10-6 12-7h9z" fill="#D2F2F3"/>
<path transform="translate(834,305)" d="m0 0h4v2l3 1v2h3v8l-4 1-9-3-6-4-4-2h6l3 2 3-6z" fill="#CDEEEE"/>
<path transform="translate(326,862)" d="m0 0h6v1l-13 3-9 2-1 2-10 1-1 2h-15l-11-1v-1l49-8z" fill="#2D2D2C"/>
<path transform="translate(804,845)" d="m0 0h12l15 3 8 1 7 3v2h-12v-2l-11-1-16-2-3-2z" fill="#525353"/>
<path transform="translate(556,800)" d="m0 0 5 2 9 9 1-3 1 3h2l7 8 10 11 9 13-1 2-12-14-20-20-11-10z" fill="#41403F"/>
<path transform="translate(886,903)" d="m0 0h25l39 2h10v-1h19l9 1v2h-42l-60-3z" fill="#3A2923"/>
<path transform="translate(875,866)" d="m0 0 9 1 9 2 1 3h8l3 1 13 3-4 2-13-2-7-1-12-2-2-2-6-2z" fill="#1E1A18"/>
<path transform="translate(239,821)" d="m0 0 3 1-1 2 2 2-8 8-4 7-11 12-4 3 2-4 7-7v-4l-5 6-2-1 7-8 10-12 2-1z" fill="#C6C3B9"/>
<path transform="translate(757,786)" d="m0 0h60v1l-9 1-34 1h-25l-3 1h-10v-1z" fill="#273031"/>
<path transform="translate(830,295)" d="m0 0 4 2 3 4-1 4-4 4-2 4-8-5 1-5z" fill="#FDFDFC"/>
<path transform="translate(857,439)" d="m0 0 1 2 4-2h7l6 4 2 3v8l-3 6-5 3h-9l-6-4-2-4v-8l1-6 3 2v13l3 4h10l4-3 1-3v-10l-7-2h-10z" fill="#CFF0F1"/>
<path transform="translate(1026,855)" d="m0 0 7 6 5 6 3 3 7 8 5 5v2h2l7 8 4 6-4-2-8-7-7-8-14-15-7-9z" fill="#B9BBBB"/>
<path transform="translate(530,849)" d="m0 0 5 1 10 4 11 4 5 1v1h-9l-6-2h-8v-2h-9l-9-1-2-4 10-1z" fill="#535454"/>
<path transform="translate(390,809)" d="m0 0h14l-2 3-36 3h-12l1-2 21-3z" fill="#222F30"/>
<path transform="translate(367,846)" d="m0 0h3v2l-5 1 7 1v1l-24 4-9 1 1-2h5v-2l-2 1h-12v-1z" fill="#323535"/>
<path transform="translate(903,827)" d="m0 0h11l6 1 1 2 9 2 20 5v1h-11l-10-1v-2h-5v-2l-3 1-5-1v-2l-3 1-7-1v-2l-3-1z" fill="#1B1614"/>
<path transform="translate(623,690)" d="m0 0h1l1 17-2 20-1 14-2 7h-1l-1-14 2-11v-9l1-10 1-1v-11z" fill="#E0E1E0"/>
<path transform="translate(820,385)" d="m0 0h3l2 5-1 5-5 4-8-1-1-4 5-7z" fill="#FDFDFC"/>
<path transform="translate(679,758)" d="m0 0h2l-2 7-3 6-5 4-2 4-8 7-3 4-2-1 8-11 2-3-2-1h2l2-4z" fill="#545454"/>
<path transform="translate(605,799)" d="m0 0 2 4v11l-1 9h1l1 17-2 1-3-11-1-1-1-15 2-9 1-5z" fill="#C5C2B8"/>
<path transform="translate(344,855)" d="m0 0 4 1-3 1 3 2-14 3h-7v-1l5-1-10 1-31 5-15 2h-9v-1l42-6z" fill="#BABCBC"/>
<path transform="translate(536,825)" d="m0 0 4 1 10 5 8 3 2 4 10 5 5 4-1 2-8-5-19-8-1-4-4-1-4-2v-2l-4-1z" fill="#BABCBB"/>
<path transform="translate(643,814)" d="m0 0h4v4l-2 2-5 10-3 1v2l-4 1v3h-4l3-9 10-13z" fill="#2B3030"/>
<path transform="translate(610,793)" d="m0 0h1l1 14-1 45-2-3-1-16v-22l1-14z" fill="#555656"/>
<path transform="translate(843,716)" d="m0 0h11l4 8-2 3-4-1-10-5v-2l-11 1-6 1v-2l13-2z" fill="#C4C2B9"/>
<path transform="translate(879,208)" d="m0 0 5 1 3 5-2 5-3 3-3 1-5-5-1-4 1-3z" fill="#80DFDA"/>
<path transform="translate(996,895)" d="m0 0h12l20 1 2 2-5 1 1 4-20-1-1-2 4-1-13-3z" fill="#BABCBB"/>
<path transform="translate(859,254)" d="m0 0 5 5 1 5h2l8 16 11 23 4 10-1 3-6-12-7-16-10-19-5-10z" fill="#D0F0F1"/>
<path transform="translate(437,801)" d="m0 0h10l25 2 8 3v1h-14l-4-1-23-1v-2h-7v-1z" fill="#1D1F1F"/>
<path transform="translate(967,842)" d="m0 0h10l16 5v2l-9 1-8-1-11-3z" fill="#282929"/>
<path transform="translate(569,825)" d="m0 0 8 6 8 7 7 8v3l-5-2-8-8-9-6-4-2v-1h5v-2h-2z" fill="#2F3334"/>
<path transform="translate(655,446)" d="m0 0v3l-12 13-1 3h-2l-1 4-1 2h-2v2l-8 7-1 2h-3l-1 3h-2l2-6 11-10 1-3h2v-2h2l1-3 5-5z" fill="#CCCECD"/>
<path transform="translate(539,885)" d="m0 0 7 2 2 2-1 1-7 1-19 1h-11l-7-1 2-3h20l1-1h8v1h9l-4-1z" fill="#382822"/>
<path transform="translate(640,766)" d="m0 0h1l1 9-1 4h4l1 2-8 13-6 14-3 1 1-9 2-4h2l2-8 3-2 1-5-1-2v-8z" fill="#F6F6F5"/>
<path transform="translate(743,741)" d="m0 0h14l1 3-16 4-7 3-4-1-2-1 1-3z" fill="#444343"/>
<path transform="translate(762,672)" d="m0 0h21v1l-9 2-5 1-5-1-5 4-8 3-4 2-6-2 1-3 1-1 4-3 3 1-3 3 7-2v-2l7-2z" fill="#FBFBFA"/>
<path transform="translate(493,906)" d="m0 0h24v2l-24 1-26 2-8-1v-2z" fill="#160F0D"/>
<path transform="translate(832,808)" d="m0 0 25 3 14 3 1 2-18-1-20-3-14-2v-1z" fill="#E2E3E2"/>
<path transform="translate(471,877)" d="m0 0h8v2l-21 2h-8l-16 2h-13l1-2h9v-2z" fill="#1A1514"/>
<path transform="translate(881,669)" d="m0 0 3 1v2l2 1-7 2-1 1-14 1-8 2h-6l1-2 9-2 3-4 16-1z" fill="#E0E1E0"/>
<path transform="translate(880,896)" d="m0 0h13l34 4 42 3v1h-25l-27-3-17-1v-2h-14l-6-1z" fill="#47403D"/>
<path transform="translate(631,830)" d="m0 0 1 2-3 5h4v-3l4-1v-2h2l-2 4-12 15-1 3 1 2h-2l1 3h-3v-2h-2l5-15z" fill="#525353"/>
<path transform="translate(568,329)" d="m0 0 6 1 3 5-1 5-2 1h-7l-3-3v-5z" fill="#80DFDA"/>
<path transform="translate(959,883)" d="m0 0h7l22 4 13 2-4 2-9 1-23-3v-1h13l2 1v-2h-9l-10-2z" fill="#373B3B"/>
<path transform="translate(656,386)" d="m0 0h6l3 2 1 3v7h-8l-4-5v-6z" fill="#FDFDFC"/>
<path transform="translate(406,819)" d="m0 0h24v1l-18 1 14 1v1l-20 1-18 2 1-2-7-1v-1z" fill="#414444"/>
<path transform="translate(706,915)" d="m0 0h40v1l-77 4 4-2 18-2z" fill="#3E3E3E"/>
<path transform="translate(673,887)" d="m0 0 3 1-1 1h-5v2l10-2 14 1 4 1-1 3h-12l-23-1 4-3z" fill="#3A2B26"/>
<path transform="translate(950,834)" d="m0 0h8l1 1 16 3 15 4 2 3h-8l-29-8-5-1z" fill="#D6D7D7"/>
<path transform="translate(546,822)" d="m0 0 8 1 13 8 9 5 10 9 3 2v2l-4-2-9-7-11-7-17-8z" fill="#BDBFBF"/>
<path transform="translate(386,885)" d="m0 0h19l-3 3-11 1 10 1v1l-9 2-11-1-3-5 7-1z" fill="#1E1F1F"/>
<path transform="translate(944,881)" d="m0 0h8l7 2 3 1 11 2 7 1v2l-23-1-7-1v-2l-7-1z" fill="#2B2928"/>
<path transform="translate(365,821)" d="m0 0h17v2l-25 3-12 2h-8l3-3z" fill="#C1C3C2"/>
<path transform="translate(668,760)" d="m0 0 2 1 1 3h-2v2l3-1-2 4-3 2v-3l-5 5-5 6-1 3h-2l2-8 1-3h2l2-9h3z" fill="#C5BDB0"/>
<path transform="translate(805,914)" d="m0 0 26 1 11 1-2 2h-39l-3-2z" fill="#3A2C27"/>
<path transform="translate(317,858)" d="m0 0h9v1l-44 7-26 3-4-1 2-1 15-2 16-2 10-1 4-1 9-2z" fill="#3C4142"/>
<path transform="translate(442,830)" d="m0 0 1 2h25v1l-46 2-18 2h-11v-1l10-1 2-1 13-1 15-2z" fill="#555656"/>
<path transform="translate(720,877)" d="m0 0h38l22 2v1h-24l-39-1z" fill="#E0E1E0"/>
<path transform="translate(513,842)" d="m0 0h13l5 2-1 3h5l7 3 8 3 6 1v2h-9l-8-4-13-4-1-2-12-3z" fill="#BEC0C0"/>
<path transform="translate(884,865)" d="m0 0 14 1 13 3 2 2 9 2-3 1-16-2-19-4z" fill="#C3C5C4"/>
<path transform="translate(995,883)" d="m0 0 11 1 16 3 10 1 4 4-12-1-11-1-13-3-3-2z" fill="#3D3F3F"/>
<path transform="translate(825,874)" d="m0 0h11l26 4 15 2 5 1-2 2-8-1-22-3-21-3z" fill="#555656"/>
<path transform="translate(479,804)" d="m0 0h8l13 4-1 3h-11l-9-2-11-1v-1l11-1z" fill="#363B3C"/>
<path transform="translate(894,823)" d="m0 0 12 2 5 1v1l-7 1 2 1v2h10l6 2h2v2h5v2l-12-2-27-6 4-1h5z" fill="#434647"/>
<path transform="translate(426,909)" d="m0 0h21l2 2h-7v2l-12 1h-11v-2l-12-1v-1z" fill="#271D1B"/>
<path transform="translate(937,868)" d="m0 0h9l1 1 15 2 7 1 4 2 16 3 7 2v1l-15-1-12-3-15-3-1-1-16-3z" fill="#545555"/>
<path transform="translate(837,418)" d="m0 0 6 3 1 4 4 2v3l3 1 6 8v3l3 1-4 2-7-9-11-13z" fill="#C7E0E2"/>
<path transform="translate(956,898)" d="m0 0h22v2h10v1l-7 1-1 1h-22l-1-2h3v-2z" fill="#CCCAC3"/>
<path transform="translate(387,918)" d="m0 0 53 1v2h-52l-2-2z" fill="#BABCBB"/>
<path transform="translate(264,856)" d="m0 0h2v3l-17 2-23 1 1-2 9-2z" fill="#555656"/>
<path transform="translate(494,845)" d="m0 0 9 1 12 1 2 1 13 1-2 2-9 1 9 1v1h-11l-1-1-7-1 1-3h-10l-6-3z" fill="#313637"/>
<path transform="translate(240,819)" d="m0 0 3 1v3l10-1 15-1-3 2h-5v2h6v1l-10 2h-3l-2-3-9 4-3 1v2l-2-1 5-5-2-3-1-1-1-2z" fill="#E0E1E0"/>
<path transform="translate(710,793)" d="m0 0h5v2l-18 7-13 5-5 2 3-5 16-7z" fill="#D2D4D3"/>
<path transform="translate(595,337)" d="m0 0 5 4 5 12 4 6 9 19 2 6-5 3v-2h2l-3-9-8-16-7-13-2-5z" fill="#D4F4F4"/>
<path transform="translate(478,328)" d="m0 0 2 1-2 5 1 7 5 3 6-2 4-4 1 4-4 5-7 1-4-1v-2l-4-2-2-4v-7h2z" fill="#CAD7D8"/>
<path transform="translate(830,270)" d="m0 0h1l2 21 4 8-4-2h-4l-6 7 1 6h-5l-1-5-3-3 1-2 1 1h7l2-5 3-2z" fill="#CEF2F2"/>
<path transform="translate(701,830)" d="m0 0h5l-1 2-12 3-7 3-10 3-12 5-5 3-3-1 10-6 19-8z" fill="#505151"/>
<path transform="translate(1013,335)" d="m0 0h5l4 2v2h2l2 4v8l-4 6-5 2-8-2-2-3 3 1h7l5-2v-2h2l-2-8-2-5h-8l-5 2 4-4z" fill="#C3D3D5"/>
<path transform="translate(754,849)" d="m0 0 7 2v1l-23 1-7-2v2h-12l-2 1h-6l-1-3 15-1z" fill="#17100F"/>
<path transform="translate(951,836)" d="m0 0 8 1 15 4v1l-7 1-2 2-10-1-8-2 3-1v-2l3 1 2-1z" fill="#323A3B"/>
<path transform="translate(500,808)" d="m0 0 15 3 5 5v1h-8l-15-4-4-2 6-1z" fill="#333838"/>
<path transform="translate(665,752)" d="m0 0 2 2-3 5h-2l-2 10-1 2h-2l-2 9-1-2h-2l-1-7 9-12z" fill="#C0BEB8"/>
<path transform="translate(450,887)" d="m0 0h5l1 2-3 2-16 1-5 2h-9l-2-2v-3h18l10-1z" fill="#160F0D"/>
<path transform="translate(435,836)" d="m0 0h26v1l32 1v1h-45l-22-1v-1z" fill="#3E4344"/>
<path transform="translate(368,808)" d="m0 0h24l-2 2-22 2-7 1h-14v-1l12-3z" fill="#808181"/>
<path transform="translate(304,783)" d="m0 0h16v1l-12 2-9 7-3-1 4-5h-13v2l-6-1 3-3 15-1 5 1z" fill="#E0E1E0"/>
<path transform="translate(469,875)" d="m0 0h42l3 2h-42l-1 1-20 1h-13v-1z" fill="#464949"/>
<path transform="translate(840,861)" d="m0 0h7l10 2 8 1v6l-7-1-5-1-11-3z" fill="#160F0D"/>
<path transform="translate(727,722)" d="m0 0 9 3 1 2v7l-2 4-5 1-9 7-4-1 5-3 5-4 5-5 1-5v-2l-9-1-2-2z" fill="#BABCBC"/>
<path transform="translate(636,328)" d="m0 0 2 1 2 2 2 9 3 6 2 7 2 5 1 11-2-4-3-5-6-20-3-8z" fill="#CEF2F2"/>
<path transform="translate(947,879)" d="m0 0h13l25 5 2 2h-11l-24-4v-2h-5z" fill="#C3C4C4"/>
<path transform="translate(564,218)" d="m0 0h7l6 3 3 5v3h-2l-2-5-4-3h-8l-6 3-3 5v8l2 6-4-2-2-11 5-8z" fill="#D2F3F3"/>
<path transform="translate(233,849)" d="m0 0 3 3-1 2 16 1v1l-18 2-7 2h-5l4-5h2l1-3z" fill="#DFE0DF"/>
<path transform="translate(545,781)" d="m0 0 1 2 5 2 11 10 2 1v2h2v2h2l-1 3-5-3-11-9v-2l-5-2-4-4h3z" fill="#D8D9D8"/>
<path transform="translate(919,348)" d="m0 0h83v3h-81l-4 3z" fill="#DBF7F7"/>
<path transform="translate(235,873)" d="m0 0h2v2h9v1l-29 4-11 2 2-1v-2l6-2 7-1 1-1z" fill="#CED0CF"/>
<path transform="translate(501,816)" d="m0 0 10 2 17 6 2 2-5 1-15-5-9-2z" fill="#3F4242"/>
<path transform="translate(730,752)" d="m0 0 3 1-2 2-12 5-16 8-3 2h-3l-2 4-4-1 3-1v-2l12-7 19-9z" fill="#B1B3B3"/>
<path transform="translate(670,693)" d="m0 0h5l-2 5-1 2h-2l-2 5-6 5-1-3 4-1-2-3-3-2z" fill="#E0E1E0"/>
<path transform="translate(334,830)" d="m0 0 5 1v2l-12 1-9 2-1 1-14 1v-3l2-1 20-2z" fill="#171110"/>
<path transform="translate(612,789)" d="m0 0 4 1-1 23-1 6-1 31h-1z" fill="#E2E3E2"/>
<path transform="translate(786,736)" d="m0 0h13l-1 3-20 3h-8v-2l5-2z" fill="#BDBFBE"/>
<path transform="translate(241,920)" d="m0 0h44v2l-7 2h-11l-4-2-22-1z" fill="#E0E1E0"/>
<path transform="translate(221,882)" d="m0 0 4 1 16 1v1l-35 3 1-2-3-3z" fill="#414444"/>
<path transform="translate(414,843)" d="m0 0h15l-2 2-10 2-18 2-4-1v-2z" fill="#C5C6C6"/>
<path transform="translate(646,828)" d="m0 0 3 2h-2v2l-16 14-7 8-2-1 10-13 10-9z" fill="#D3D4D4"/>
<path transform="translate(889,316)" d="m0 0 2 4-7 2 3 2-1 4-4 4v-3l-2-5-13-3-1-2 4-1 2 1h11l6 1z" fill="#C8E9EC"/>
<path transform="translate(966,216)" d="m0 0 3 4v2h2v2l11 3v2l-10 1-2 3h-2l-2 4-4 3 4-8-1-4h4l-3-8z" fill="#CBE0E1"/>
<path transform="translate(834,817)" d="m0 0h19l1 3h8l1 1 10 1 15 5-4 1-27-6-23-4z" fill="#4B4C4C"/>
<path transform="translate(815,629)" d="m0 0 2 3h-2l-1 2-13 7h-2v2l-5 2-5 3-3-1 9-7h3l1-2 15-8z" fill="#DCDDDC"/>
<path transform="translate(830,419)" d="m0 0 2 1-5 8-21 6-7 3-9 1 1-2 11-3 7-3 18-6z" fill="#D0EFF1"/>
<path transform="translate(813,386)" d="m0 0h2l-4 10v2h8l6-5-1 5-3 3h-11l-6 1 3-5-3-1 1-2 5-1 1-4z" fill="#CEF1F2"/>
<path transform="translate(679,735)" d="m0 0h2v3h-2v3l1-1h5l-3 6h-2l-1 3h-6l-1-2 1-1-2-2 7-7z" fill="#BABCBC"/>
<path transform="translate(879,674)" d="m0 0m-1 1m-14 1h14v1l-13 1-9 4-20 2h-7v-1h6v-2l14-1 4-2 9-1z" fill="#FDFDFC"/>
<path transform="translate(340,861)" d="m0 0h8v1l-14 4-19 3h-6l1-2 15-3 7-2 8 1z" fill="#171312"/>
<path transform="translate(417,838)" d="m0 0h31v1l-15 1-20 3h-6l3-4z" fill="#272625"/>
<path transform="translate(995,823)" d="m0 0h6l9 12 4 5-1 3-5-5-10-9z" fill="#EA6919"/>
<path transform="translate(305,858)" d="m0 0 3 2-12 2-1 1-13 1-14 2v-3l11-1 12-2 2 1v-2z" fill="#17100E"/>
<path transform="translate(460,883)" d="m0 0h18l-3 4-3 1h-17v-3z" fill="#243032"/>
<path transform="translate(892,863)" d="m0 0 16 2 18 4v1h-6l-2-1v2l-11-2-13-3z" fill="#393D3E"/>
<path transform="translate(368,865)" d="m0 0h8v2l-33 6h-5l2-2 6-1 1-3 11 1 1-1h9z" fill="#4B4B4B"/>
<path transform="translate(419,800)" d="m0 0h36l26 3-2 2-7-1-25-2-28-1z" fill="#4B4C4D"/>
<path transform="translate(787,645)" d="m0 0m-2 1 2 1-1 3-15 9-11 8h-2l2-4 2-2h3v-2l6-4 5-1v-2h2v-2z" fill="#DFE0DF"/>
<path transform="translate(904,589)" d="m0 0 4 1v2l-10 4h-3l-1 2h-4v2h-5l-1 2-4-1v-2h3l1-2 14-5z" fill="#D8DAD9"/>
<path transform="translate(518,877)" d="m0 0h14l14 2 3 2v2l-36-2v-1l16-1-11-1z" fill="#333131"/>
<path transform="translate(805,850)" d="m0 0 11 1 16 3 6 1v1h-16l-20-3v-2z" fill="#D4D5D5"/>
<path transform="translate(374,842)" d="m0 0 9 1v1l-16 3-15 1-10 2-4-1 5-2z" fill="#D5D7D6"/>
<path transform="translate(826,812)" d="m0 0h15l9 1v1l-5 1 4 2v1h-9l-8-2-6-2z" fill="#293132"/>
<path transform="translate(290,842)" d="m0 0h11l1 2-9 1-1 1h-9v2l-9 1-2-2 4-1v-2z" fill="#E6E7E6"/>
<path transform="translate(222,868)" d="m0 0h6v2l9-1h13v1l-15 2h-21v-2z" fill="#3B3E3F"/>
<path transform="translate(216,863)" d="m0 0 3 1h21v1l-9 2-13 3-4-1v-4z" fill="#D3D5D4"/>
<path transform="translate(503,814)" d="m0 0 9 2 24 8v2l-8-1-20-7-5-2z" fill="#BCBEBE"/>
<path transform="translate(487,785)" d="m0 0h10l3 3v2l4 1 1 3-16-4-7-2 4-1z" fill="#CBCDCC"/>
<path transform="translate(688,774)" d="m0 0 3 1-9 7-7 5h-2v2h-2l-2 4-5 3-2-1 3-4h2v-2h3l1-3 11-8 5-3z" fill="#676868"/>
<path transform="translate(848,650)" d="m0 0h2v3l-7 3-6 2h-4v2l-10 1 4-4z" fill="#DBDCDB"/>
<path transform="translate(426,879)" d="m0 0h5v2l-5 1h5l-3 2-11 2h-7l-3-1v-2l7-1 5-2z" fill="#262B2B"/>
<path transform="translate(787,855)" d="m0 0h12l3 2 6 2v2l-20-1-6-1v-1l5-1z" fill="#1E2B2C"/>
<path transform="translate(590,837)" d="m0 0 4 1 4 5 5 9 1 3h-2l-5-5-2-1-1-6-1-1-1 3-4-2v-4z" fill="#CACBC9"/>
<path transform="translate(583,410)" d="m0 0h4v3l-7 4-2 3h-3v19h-1v-19l-4-1 5-4 6-3z" fill="#DBF7F7"/>
<path transform="translate(353,853)" d="m0 0h16v2l-16 3h-13v-1l8-1v-2z" fill="#D0D2D1"/>
<path transform="translate(363,806)" d="m0 0h18v1l-26 4h-11l2-2z" fill="#363B3C"/>
<path transform="translate(620,387)" d="m0 0h3l7 12 9 19 1 4-3-1-5-12-10-18-4-2z" fill="#D3F4F4"/>
<path transform="translate(992,899)" d="m0 0h4v2l6 1v1l12 1v1h-30l3-3 4-1z" fill="#C5BDAF"/>
<path transform="translate(490,877)" d="m0 0h28l16 2v1h-26l-2-1-16-1z" fill="#1B1715"/>
<path transform="translate(338,845)" d="m0 0h7l-2 2-26 5-11-1v-1l28-4z" fill="#525353"/>
<path transform="translate(677,834)" d="m0 0h5l-8 4-3 3-15 6-4 1-1-2 11-5 11-6z" fill="#D8D9D8"/>
<path transform="translate(520,806)" d="m0 0 7 1 4 2 8 1 7 5-2 1-10-3-6-2v2l-9-3 2-2z" fill="#414141"/>
<path transform="translate(666,434)" d="m0 0 2 4-7 6h-2v2h-2l-1 4-12 13-2-1 13-14v-4l3-1 1-3 5-1v-3h2z" fill="#CCE5E6"/>
<path transform="translate(296,855)" d="m0 0h12l-1 2-19 3h-18v-1l23-3z" fill="#D6D8D7"/>
<path transform="translate(251,842)" d="m0 0h13l-1 2-14 3h-10v-2l5-2z" fill="#202323"/>
<path transform="translate(858,786)" d="m0 0 16 2 20 4v2h-7l-2-1-9-1-2-1-15-2z" fill="#E6E7E6"/>
<path transform="translate(822,659)" d="m0 0 4 2-4 3-10 4-7 3-3-1v-2l9-4 10-4z" fill="#E0E1E0"/>
<path transform="translate(994,892)" d="m0 0h19l3 1 11 1 10 2v1l-22-1-21-3z" fill="#555656"/>
<path transform="translate(276,786)" d="m0 0 4 2-2 1-10 1-2 1-16 1-2 1v-3l7-2 10-1z" fill="#E0E1E0"/>
<path transform="translate(534,772)" d="m0 0 4 1 13 10 8 7 6 5-3 1-11-10-5-3v-2l-5-2-7-6z" fill="#C0BFB9"/>
<path transform="translate(762,896)" d="m0 0h38l12 1 1 2h-14l-8-1-29-1z" fill="#160F0D"/>
<path transform="translate(886,874)" d="m0 0h8l7 1 18 3-3 2h-10l-1-1-9-1-1-1-9-1z" fill="#1E2C2E"/>
<path transform="translate(847,868)" d="m0 0h3v2h9l1 1 11 1 1 3-11-1-18-3-8-1v-1z" fill="#555656"/>
<path transform="translate(631,98)" d="m0 0h8l2 2v10l-1 1h-6l-1-2 1-2 3-2-1-5h-5z" fill="#F8FCFB"/>
<path transform="translate(804,868)" d="m0 0h16l1 1 17 2 18 3v1h-9l-3-1-11-1-2-1-27-3z" fill="#E0E1E0"/>
<path transform="translate(552,810)" d="m0 0 8 5 6 3 3 3 2 1v2h-5l-11-8-7-4z" fill="#D5D6D5"/>
<path transform="translate(731,742)" d="m0 0m-3 1h3v2l-3 2h-3l-1 3-11 5-7 1 5-4z" fill="#D8D8D5"/>
<path transform="translate(484,330)" d="m0 0h5l1 1v7l-2 3h-4v-3h-2v-6z" fill="#B9E7E8"/>
<path transform="translate(509,844)" d="m0 0h10l7 2v2l3 1h-12l-10-2-1-2z" fill="#747676"/>
<path transform="translate(373,826)" d="m0 0h14v1l-25 4-15 2h-5l4-2 25-4z" fill="#484A4A"/>
<path transform="translate(709,811)" d="m0 0m-4 1h4v2l-6 3-10 2-12 4-1 1h-5l4-2 5-3z" fill="#DADBDA"/>
<path transform="translate(734,351)" d="m0 0h7l-1 25h-2v-15h-2z" fill="#D7F5F5"/>
<path transform="translate(926,896)" d="m0 0h13l12 2v1l-9 2h-7v-2h-11z" fill="#C4C2BA"/>
<path transform="translate(803,881)" d="m0 0 17 2 13 2v1h-19l-10-1z" fill="#DADBDA"/>
<path transform="translate(938,869)" d="m0 0 7 1 8 1 5 2v2h-9l-16-4v-1z" fill="#C3C5C4"/>
<path transform="translate(422,834)" d="m0 0 42 1v1l-38 1-14-1v-1z" fill="#BABCBC"/>
<path transform="translate(475,802)" d="m0 0h18l11 3v2h-9l-20-4z" fill="#C5C7C6"/>
<path transform="translate(587,508)" d="m0 0 1 4h2l3 6 7 1 7-3-2 5-3 2h-7l-7-6-1-2z" fill="#D4D8D8"/>
<path transform="translate(662,152)" d="m0 0 2 4h2l2 3v3h2l4 9 1 5-4-4v-3h-2v-3h-2l-1-5h-3l-3-7h2z" fill="#C8D2D3"/>
<path transform="translate(748,123)" d="m0 0 3 1-2 9-4 10h-3v-6h2l2-9z" fill="#CEDCDD"/>
<path transform="translate(1058,899)" d="m0 0 5 1v5l2 1-1 2h-11l-1-1-15-1v-1h23z" fill="#C8C7C0"/>
<path transform="translate(938,879)" d="m0 0 8 1-3 4 7 1v1h-9l-22-3v-1l14-1 3 2 3-1 1-2z" fill="#383C3C"/>
<path transform="translate(873,875)" d="m0 0 22 1 1 1 9 1 1 1 10 1v2l-16-2-27-4z" fill="#4B4C4C"/>
<path transform="translate(504,806)" d="m0 0 8 1 11 4v2l-8-1-17-4v-1z" fill="#BDBFBF"/>
<path transform="translate(568,803)" d="m0 0 5 1 4 2v2h2v8l-4-2-1-3h-2l-4-5z" fill="#C7C4BC"/>
<path transform="translate(737,361)" d="m0 0 2 4-1 11h2v17l-1-2h-2z" fill="#BCEDED"/>
<path transform="translate(692,853)" d="m0 0h12l-2 2-4 2-1 1h-7l-3-1v2l-6-1v-1h5l1-3z" fill="#252D2D"/>
<path transform="translate(741,738)" d="m0 0h11l-4 2-14 5-5 3-4-1 6-2 1-3z" fill="#D2D3D0"/>
<path transform="translate(716,334)" d="m0 0 5 1 2 2 9 1-1 6 4 10-4-2-2-3v-5l-2-1v-2l-11-5z" fill="#CAF0F1"/>
<path transform="translate(996,895)" d="m0 0h12l13 2-1 2h-5l2 2h-12l4-2-13-3z" fill="#C6C1B6"/>
<path transform="translate(571,824)" d="m0 0 6 1v2l4 2 6 5v2l-6-1-10-8z" fill="#DBDCDB"/>
<path transform="translate(860,815)" d="m0 0h15l12 3 2 2 3 2-9-1-23-5z" fill="#CFD0D0"/>
<path transform="translate(528,811)" d="m0 0h5l8 3 3 1 2 5-6-1-11-5z" fill="#2C3233"/>
<path transform="translate(719,812)" d="m0 0 12 1v1l-15 2-13 3h-4v-2l14-4z" fill="#4A4C4C"/>
<path transform="translate(533,802)" d="m0 0 6 1 10 4 3 2-1 3-9-3-8-4z" fill="#DCDDDC"/>
<path transform="translate(894,881)" d="m0 0h18l7 1v2l14 1v1h-13l-26-4z" fill="#D6D7D6"/>
<path transform="translate(450,880)" d="m0 0h36v1l-27 1-5 1h-20v-1z" fill="#36393A"/>
<path transform="translate(736,392)" d="m0 0h1v11l-6 1v1h-8l-13-2v-1l9-1h10l7 1z" fill="#C7F0F0"/>
<path transform="translate(835,306)" d="m0 0 5 1 1 3h2v5l-3 1-7-3 1-2-1-3z" fill="#81DFDA"/>
<path transform="translate(383,885)" d="m0 0 3 1-3 3-3 1 1 2h-6v-2h-19v-1z" fill="#393E3F"/>
<path transform="translate(546,834)" d="m0 0 5 1 14 5 10 7-1 2-8-5-19-8z" fill="#4F5050"/>
<path transform="translate(885,823)" d="m0 0h9l5 2 1 4-12-1-4-2z" fill="#202627"/>
<path transform="translate(701,758)" d="m0 0h2v3l-14 9-3 2h-3v-2l16-11z" fill="#DBDBD8"/>
<path transform="translate(470,810)" d="m0 0 13 1 2 2 5 1-2 4-18-1v-1h14v-2h-4v-2h-9z" fill="#31393A"/>
<path transform="translate(665,768)" d="m0 0h2l-1 6h-2v2h-2l-2 5-3 4-3-1 4-8z" fill="#C4C1B7"/>
<path transform="translate(730,787)" d="m0 0h17l-4 2-16 3h-9l4-3z" fill="#D1D3D2"/>
<path transform="translate(501,761)" d="m0 0 5 1 16 8 8 5-4 1-8-4v-2l-4-1-11-6z" fill="#414141"/>
<path transform="translate(726,221)" d="m0 0h4l-1 3-7 5-4 9-3-1 1-4 6-9z" fill="#D3F4F4"/>
<path transform="translate(518,851)" d="m0 0h13l5 1v4l-16-1z" fill="#6B6D6D"/>
<path transform="translate(667,786)" d="m0 0 3 1v2h-3v2l-4 4-1 3h-2v2h-2v2h-2l-1 2-2-2 5-7h2l2-4z" fill="#414242"/>
<path transform="translate(815,780)" d="m0 0h5l1 4h-10l-14-1v-2z" fill="#E0E1E0"/>
<path transform="translate(668,395)" d="m0 0 7 1-4 3 6 6 5 3 4 4-1 2-15-11-2-4z" fill="#C4EEEE"/>
<path transform="translate(552,796)" d="m0 0 5 2 2-1 8 7 3 3 1 5-7-6-6-5-5-3z" fill="#343534"/>
<path transform="translate(640,766)" d="m0 0h1l1 9-1 4h4l1 2-6 10-1-2-2-1 2-2 1-5-1-2v-8z" fill="#E1E2E1"/>
<path transform="translate(485,938)" d="m0 0h29l-1 2-10 1h-11l-12-1v-1z" fill="#E0E1E0"/>
<path transform="translate(333,892)" d="m0 0h8l-4 4h-25v-1z" fill="#3A3838"/>
<path transform="translate(348,827)" d="m0 0h14l-2 1v2l-7 1h-12v-2z" fill="#1A1817"/>
<path transform="translate(437,801)" d="m0 0h10l10 1v1h-6v2h-12v-2h-7v-1z" fill="#222F31"/>
<path transform="translate(665,911)" d="m0 0 2 8 2 1h-4v2h-10l4-4h3l2-6z" fill="#3B2C26"/>
<path transform="translate(471,877)" d="m0 0h8v2l-21 2-7-1 1-2z" fill="#16100E"/>
<path transform="translate(1109,850)" d="m0 0 10 2 6 2 6 1 2 2-3 1-12-3-12-2-1-2z" fill="#E0E1E0"/>
<path transform="translate(667,779)" d="m0 0 2 1-3 5-7 7-6 8-1-3 2-3h2l2-5z" fill="#BDBDB9"/>
<path transform="translate(738,743)" d="m0 0 3 1-1 2 2 2-7 3-4-1-2-1 1-3z" fill="#434444"/>
<path transform="translate(896,634)" d="m0 0h14v1l-13 4-6 2-5-1 1-2h3l1-2 4-1z" fill="#CDCFCE"/>
<path transform="translate(975,213)" d="m0 0 7 1 1 4-3 3-5-1-1-1v-5z" fill="#C9DADB"/>
<path transform="translate(235,878)" d="m0 0h18l2 3-14 1-11-1v-1h5z" fill="#1E1A1A"/>
<path transform="translate(257,860)" d="m0 0h12l-4 2-9 2h-14l1-2z" fill="#D6D7D6"/>
<path transform="translate(716,843)" d="m0 0h12v2l-13 2h-12l1-2z" fill="#464849"/>
<path transform="translate(501,831)" d="m0 0h9l14 3v2l-16-1-8-2z" fill="#545555"/>
<path transform="translate(652,827)" d="m0 0 1 2h2 3l2 1-6 5h-6v-2l-4 1 1-2h2v-2z" fill="#333B3C"/>
<path transform="translate(295,812)" d="m0 0h16v2l-13 3h-6l3-2z" fill="#E2E2E1"/>
<path transform="translate(678,774)" d="m0 0 2 1-5 6-10 8-4 1 6-7 8-7z" fill="#D9D9D7"/>
<path transform="translate(966,230)" d="m0 0 2 2-7 9-2 4h-3l-2 4-1-2 3-5 7-9z" fill="#C5CCCD"/>
<path transform="translate(734,853)" d="m0 0 20 2v1h-38v-1l16-1z" fill="#3E3E3E"/>
<path transform="translate(631,830)" d="m0 0 1 2-3 5h4v-3l4-1v-2h2l-2 4-7 8h-2l-1-6z" fill="#444443"/>
<path transform="translate(527,775)" d="m0 0 7 3 11 7-3 1-1 2-8-7-6-4z" fill="#333636"/>
<path transform="translate(745,746)" d="m0 0h10v2l-10 2-9 3h-4v-2z" fill="#C5C6C5"/>
<path transform="translate(453,690)" d="m0 0 6 2 5 4-6 2-5-1-2-2v-3h2z" fill="#BABCBC"/>
<path transform="translate(721,487)" d="m0 0 2 4 1 5 5 1h7l3-2-1 4-3 2h-8l-1-3-4-2z" fill="#CDEDEF"/>
<path transform="translate(638,314)" d="m0 0 4 2-3 2v7l-3-2-2 1-3-4 1-3 1-2z" fill="#CEF0F1"/>
<path transform="translate(641,811)" d="m0 0 2 4-10 13-1 2h-2l1-5 2-3h2v-4h2v-2h2z" fill="#C3C2BD"/>
<path transform="translate(810,810)" d="m0 0h17l7 1v1h-8v2h5l1 2-7-1-5-1v-2l-10-1z" fill="#353B3B"/>
<path transform="translate(702,762)" d="m0 0h2l-1 4-10 5h-3v-3l8-5z" fill="#2E2B2A"/>
<path transform="translate(976,207)" d="m0 0 9 2 3 10h-2l-1-7-4-1-1 3h-5l-2 3 1-5 2-2z" fill="#DAF6F6"/>
<path transform="translate(194,895)" d="m0 0 4 1v3l3 1v1l-7 1h-3l-3-1 2-4z" fill="#BCBDBB"/>
<path transform="translate(299,877)" d="m0 0h7v1l-21 3-18 1 2-2 12-1 3-1z" fill="#4B4C4C"/>
<path transform="translate(887,851)" d="m0 0h12l9 1 8 3v1h-10l-1-1-7-1-1-1-10-1z" fill="#E2E3E2"/>
<path transform="translate(731,851)" d="m0 0h6l1 2-6 2h-18l3-2 2-1 12 1z" fill="#1E2C2E"/>
<path transform="translate(579,842)" d="m0 0 5 3 3 3 5 1 1-2 1 6h2l-1 2-15-8z" fill="#515252"/>
<path transform="translate(585,825)" d="m0 0 6 5 9 13-1 2-12-14-4-5z" fill="#4C4B4B"/>
<path transform="translate(365,821)" d="m0 0h17v2l-11 1h-13v-2z" fill="#C9CBCA"/>
<path transform="translate(580,816)" d="m0 0 7 6 5 5v2h2v4l-3-1-7-8-4-5z" fill="#D3D4D3"/>
<path transform="translate(537,752)" d="m0 0 5 3v2l4 2 7 7v2h2l6 7-1 2-9-9-6-7-9-7z" fill="#BFBEB8"/>
<path transform="translate(472,702)" d="m0 0 5 2 10 6-1 2-1 3h-3v-2h-2v-4h-2v-2l-4-2z" fill="#C4C2B9"/>
<path transform="translate(639,310)" d="m0 0h5l1 3-1 4-4 1v8l-2 1v-9l2-3v-2l-7 1 4-3z" fill="#B0CECE"/>
<path transform="translate(960,904)" d="m0 0h19l9 1v2h-18v-1l-10-1z" fill="#342722"/>
<path transform="translate(565,834)" d="m0 0 5 1 9 6v3l2 1-5-1-8-5-3-3z" fill="#343738"/>
<path transform="translate(913,761)" d="m0 0h4v2l3 1 2 6-1 2 3 1-3 1-2-2v-3l-4-2v-3l-4-2z" fill="#C5C3BA"/>
<path transform="translate(839,330)" d="m0 0h1v8l-3 9-4 4 1-6 4-14z" fill="#D8F6F6"/>
<path transform="translate(653,226)" d="m0 0 2 3-2 16-3-1 1-15z" fill="#BCEDED"/>
<path transform="translate(802,912)" d="m0 0 16 2v1h-31l-2-2z" fill="#211C1B"/>
<path transform="translate(365,889)" d="m0 0h11l-1 3h6l-4 2h-8v-1l-5-1z" fill="#1D2425"/>
<path transform="translate(246,875)" d="m0 0h7v3l-8 1h-22v-1z" fill="#363C3C"/>
<path transform="translate(637,840)" d="m0 0 1 2-5 4-1 2 2 1-4 4h-2v2l-5 2v-2h2l1-4 9-10z" fill="#393C3D"/>
<path transform="translate(367,846)" d="m0 0h3v2l-5 1 7 1v1l-11 1v-2h-13v-1z" fill="#3A4141"/>
<path transform="translate(412,836)" d="m0 0h14v2l-9 1h-19v-1z" fill="#E0E0E0"/>
<path transform="translate(562,823)" d="m0 0 6 1 1 4h2v2h-7l-4-4v-2z" fill="#272929"/>
<path transform="translate(992,820)" d="m0 0 10 2 3 4v2h2v2h2v2l-4-2-4-5v-2l-5 1 2 5-7-6z" fill="#C4BFB4"/>
<path transform="translate(711,819)" d="m0 0h9l-3 2-15 3-6 2h-6l4-3 7-2z" fill="#555656"/>
<path transform="translate(857,439)" d="m0 0 1 2 4-2h7l6 4 2 3v8h-1v-7h-2v-3l-7-2h-10z" fill="#D5F3F4"/>
<path transform="translate(989,215)" d="m0 0h1v6l-4 6-4 1-5-1 4-2 3-1v-2h2l1-6z" fill="#D7DDDD"/>
<path transform="translate(412,881)" d="m0 0 3 1-1 1h-7v2l3 1-6 1v-1l-16-1v-1z" fill="#3C3F40"/>
<path transform="translate(530,845)" d="m0 0h6v2h5l11 5 5 1v1h-7l-10-4-10-3z" fill="#555656"/>
<path transform="translate(657,838)" d="m0 0 4 1-3 3-11 6-5 4-2-1 7-6h2v-2z" fill="#4A4C4C"/>
<path transform="translate(532,827)" d="m0 0h6l1 2 7 3v2l-5-1-9-2-3-3z" fill="#4C4D4D"/>
<path transform="translate(239,821)" d="m0 0 3 1-1 2 2 2-4 3-6 3v-3l4-4zm-8 10m-1 1 2 1-1 3-2-3z" fill="#C6C0B4"/>
<path transform="translate(925,878)" d="m0 0 13 1 2 1 1 4-7-1-7-2z" fill="#1A1615"/>
<path transform="translate(344,855)" d="m0 0 4 1-3 1 3 2-14 3h-7v-1l7-2 4-1v-2z" fill="#C4C6C6"/>
<path transform="translate(626,820)" d="m0 0 2 1-1 9-5 8-2-4 3-5z" fill="#818282"/>
<path transform="translate(597,506)" d="m0 0 5 1 1 4-4 1v2l-4-1-1-5z" fill="#80DFDA"/>
<path transform="translate(603,397)" d="m0 0h2v2l-7 6-9 5-2-1 5-5h2v-2l6-1v-2z" fill="#C6CFD0"/>
<path transform="translate(483,324)" d="m0 0h6l5 4-3 1-7-1-7 2-1 2-2-1 2-4z" fill="#CDE8EA"/>
<path transform="translate(643,123)" d="m0 0 6 5 3 6v4l-4-2-3-5-2-5z" fill="#D0D2D1"/>
<path transform="translate(617,911)" d="m0 0 9 1-1 2-3 1h-15l3-3z" fill="#3B2F2B"/>
<path transform="translate(859,870)" d="m0 0 13 1 14 4-4 1-13-2v-1l-9-1z" fill="#3E3E3E"/>
<path transform="translate(283,866)" d="m0 0 15 1v1l-19 3-4-1 3-1-2-2z" fill="#CCCECD"/>
<path transform="translate(690,850)" d="m0 0 3 2-1 2-16 4h-5l4-3h6v-2z" fill="#CCCDCD"/>
<path transform="translate(724,839)" d="m0 0h11l2 2-13 2-8-1 4-2z" fill="#D4D5D4"/>
<path transform="translate(664,775)" d="m0 0h2l-2 4-9 13-2 1 1-5 8-12z" fill="#3E302B"/>
<path transform="translate(586,912)" d="m0 0 22 1-1 2h-20z" fill="#3A2D29"/>
<path transform="translate(183,891)" d="m0 0v3l-4 4h-2v2h-2l1 3 4 2h-10l2-5z" fill="#E0E1E0"/>
<path transform="translate(203,881)" d="m0 0 3 1-1 2 4 2v1h9v1l-13 1-5-2-1-2h3z" fill="#BFBFBC"/>
<path transform="translate(403,840)" d="m0 0h7l-1 2 9-1 2 2-11 2h-8l4-2 1-1h-11v-1z" fill="#393F40"/>
<path transform="translate(376,810)" d="m0 0 4 1-10 2-4 2h-12l1-2z" fill="#2E3536"/>
<path transform="translate(727,804)" d="m0 0m-5 1h5v2l-20 4-6 2-4-1 7-3z" fill="#555656"/>
<path transform="translate(941,624)" d="m0 0h5l-1 4-13 2-4-3z" fill="#DDDEDD"/>
<path transform="translate(595,498)" d="m0 0 13 1-2 2-4-1-1 2-4-1-4 2-4 4 1-6z" fill="#C8DFE0"/>
<path transform="translate(673,833)" d="m0 0m-3 1h3l-1 3-18 9-3-1z" fill="#BABCBC"/>
<path transform="translate(501,816)" d="m0 0 10 2 1 3 4 1-12-1-4-2z" fill="#2D3536"/>
<path transform="translate(803,806)" d="m0 0h20l9 2v1h-14l-3-1-12-1z" fill="#F0F0EF"/>
<path transform="translate(841,404)" d="m0 0 1 2-4 6-1 5 4 2-1 2-2-2-2 2-1-2h-3v-3h2l1-5 4-4z" fill="#D6F1F2"/>
<path transform="translate(493,338)" d="m0 0 2 4-4 5-7 1-2-2h2v-2l6-2z" fill="#DBDDDC"/>
<path transform="translate(595,337)" d="m0 0 5 4 5 12 3 4v2l-3-1-6-11-2-5z" fill="#D2F2F3"/>
<path transform="translate(649,247)" d="m0 0h1v13l-2 4v-7l-7-1v-3l6-1z" fill="#BCECEC"/>
<path transform="translate(956,245)" d="m0 0 2 1-3 5h-2l-2 4-6 8-5 7-2-1 3-5 7-8z" fill="#D4EDEE"/>
<path transform="translate(494,845)" d="m0 0 9 1 12 1v2h-15l-6-3z" fill="#293234"/>
<path transform="translate(654,767)" d="m0 0h2v3l2 1-3 9-1-2h-2l-1-7z" fill="#BCBCBA"/>
<path transform="translate(730,752)" d="m0 0 3 1-2 2-12 5-6 2 5-5 8-4z" fill="#BABCBB"/>
<path transform="translate(878,600)" d="m0 0 5 1-4 3-10 4-2-1v-2l7-4z" fill="#DBDCDB"/>
<path transform="translate(873,346)" d="m0 0h22v2l-8 1-14-1z" fill="#C3D2D3"/>
<path transform="translate(990,899)" d="m0 0 2 2-7 3-1 1-15-1-1-2h12l1-1 8-1z" fill="#C0C0BA"/>
<path transform="translate(428,883)" d="m0 0h11l5 2v1h-19v-2z" fill="#414141"/>
<path transform="translate(663,862)" d="m0 0 2 1-1 1 2 2-15 5-2-1 9-6z" fill="#444747"/>
<path transform="translate(643,814)" d="m0 0h4v4l-2 2-3 6-3-1 2-7z" fill="#2F2825"/>
<path transform="translate(736,428)" d="m0 0h1v23l-6-2-2-1 1-2h6z" fill="#C7E9EC"/>
<path transform="translate(377,883)" d="m0 0h11v2l-5 1h-15l2-2z" fill="#D1D2D2"/>
<path transform="translate(221,882)" d="m0 0 4 1 16 1v1l-18 1-9-2v-1z" fill="#474848"/>
<path transform="translate(937,875)" d="m0 0 15 3v3l-10-1-9-2 4-1z" fill="#BABCBC"/>
<path transform="translate(272,872)" d="m0 0h11l-2 2-10 2h-10l1-2h10z" fill="#160F0D"/>
<path transform="translate(840,859)" d="m0 0 11 1 14 3-1 2-5-1-2 1v-2h-8l-9-3z" fill="#3A3F3F"/>
<path transform="translate(298,851)" d="m0 0h14l-2 2-7 1h-13l3-2z" fill="#464849"/>
<path transform="translate(527,840)" d="m0 0 9 1 7 3v1h-5l-1-1h-10l-1-1-7-1v-1z" fill="#505151"/>
<path transform="translate(559,835)" d="m0 0 9 3 2 1v3l2 1-6-1-8-5z" fill="#C3C5C5"/>
<path transform="translate(316,833)" d="m0 0m-2 0 3 2v2l-14 1v-3l2-1z" fill="#181615"/>
<path transform="translate(542,824)" d="m0 0 10 2 1 3 3 1-4 1-6-2v-2h-4z" fill="#272C2C"/>
<path transform="translate(925,826)" d="m0 0h6l3 2v2l2 1-14-1-2-2h5z" fill="#C7C9C9"/>
<path transform="translate(610,793)" d="m0 0h1l1 14-1 10h-1l-1-6v-14z" fill="#4D4E4E"/>
<path transform="translate(370,727)" d="m0 0m-2 1h2l-2 4-5 4-7 4-3 4-2-1 4-5 11-8h2z" fill="#E0E1E0"/>
<path transform="translate(690,323)" d="m0 0 5 1 15 6 1 3-7-2-9-4-5-3z" fill="#C2EFEF"/>
<path transform="translate(633,910)" d="m0 0h9l-1 3-16 1 3-3z" fill="#3A2924"/>
<path transform="translate(171,893)" d="m0 0v3l-7 7v-3l5-5zm-9 10m-1 1m-1 1 1 3-3 1-1 6h-2l1-7h3z" fill="#D5D5D0"/>
<path transform="translate(884,865)" d="m0 0 11 1 7 2v1h-14l-4-1z" fill="#E6E7E6"/>
<path transform="translate(985,845)" d="m0 0 5 1 3 1v2l-9 1-8-1-3-2h10z" fill="#515252"/>
<path transform="translate(558,792)" d="m0 0 6 4v2h2v2h2l-1 3-5-3-6-5 2-1z" fill="#D9DAD9"/>
<path transform="translate(824,299)" d="m0 0h2l-2 4-1 5 1 2h-5l-1-5-3-3 1-2 1 1h7z" fill="#D5F4F4"/>
<path transform="translate(822,887)" d="m0 0 17 1 7 1 1 2h-11v-2h-12z" fill="#484949"/>
<path transform="translate(920,865)" d="m0 0h6l6 2v2h-10l-5-1v-2z" fill="#CACBCB"/>
<path transform="translate(865,864)" d="m0 0 10 1-1 3-9 1-1-3z" fill="#232221"/>
<path transform="translate(236,854)" d="m0 0 15 1v1l-18 2h-6l1-2 4-1z" fill="#E8E9E8"/>
<path transform="translate(370,846)" d="m0 0h11l-1 2-7 2h-11l3-2h5z" fill="#1D2121"/>
<path transform="translate(496,836)" d="m0 0h8l9 2v1h-20z" fill="#313333"/>
<path transform="translate(343,834)" d="m0 0h9l-2 2-16 2h-5v-2z" fill="#E0E1E0"/>
<path transform="translate(894,823)" d="m0 0 12 2 5 1v1l-7 1 2 2-6-1-6-5z" fill="#333838"/>
<path transform="translate(679,806)" d="m0 0 3 1-5 4-5 3h-4v-3z" fill="#E1E2E1"/>
<path transform="translate(430,782)" d="m0 0h17l1 1 7 1-1 2h-7l-7-2-10-1z" fill="#1E2A2C"/>
<path transform="translate(554,416)" d="m0 0h9l11 4-1 4-1-2-6-2-2-1h-11z" fill="#CFF2F2"/>
<path transform="translate(848,313)" d="m0 0h7l-1 3-4 3h-2l-1 3-2-1 2-7z" fill="#C8E9EC"/>
<path transform="translate(660,310)" d="m0 0 9 2 7 4-2 2-12-5-5-1z" fill="#C7F0F0"/>
<path transform="translate(985,887)" d="m0 0 13 1 3 2-10 2-10-1v-1l6-1z" fill="#4F5050"/>
<path transform="translate(824,864)" d="m0 0 10 1 13 3v1h-13l-2-2-8-2z" fill="#3E3E3E"/>
<path transform="translate(632,840)" d="m0 0 3 1-6 8-5 5-2-1z" fill="#BFC1C1"/>
<path transform="translate(290,842)" d="m0 0h11l1 2-9 1-1 1-7-1v-2z" fill="#E2E3E2"/>
<path transform="translate(643,351)" d="m0 0 4 2 2 5 1 11-2-4-3-5z" fill="#C9F1F1"/>
<path transform="translate(630,94)" d="m0 0h5l-1 3-7 2-2 7h-1l-1-7 3-4z" fill="#CBE6E9"/>
<path transform="translate(387,889)" d="m0 0 14 1v1l-9 2-11-1-1-2z" fill="#2B2725"/>
<path transform="translate(244,881)" d="m0 0m-9 0 9 1-2 2h-17l3-2z" fill="#1F292B"/>
<path transform="translate(838,855)" d="m0 0 12 3v2l-10-1-10-2v-1z" fill="#C9CACA"/>
<path transform="translate(327,833)" d="m0 0h14v1l-18 3h-6l1-2z" fill="#3C4242"/>
<path transform="translate(655,817)" d="m0 0m-1 1m-1 1m-1 1m-1 1m-1 1m-1 1m-2 1h2l-2 4-10 9-3 2 2-4z" fill="#BABCBC"/>
<path transform="translate(662,821)" d="m0 0 2 1-6 6-7 3v-2h2l1-4 2-2z" fill="#1E1B19"/>
<path transform="translate(483,810)" d="m0 0 10 1 9 2 1 2-10-1-10-2z" fill="#BABCBC"/>
<path transform="translate(710,793)" d="m0 0h5v2l-13 5-3-1h2l2-4z" fill="#CDCECE"/>
<path transform="translate(995,883)" d="m0 0 11 1 12 2v1l-14 1-7-3z" fill="#4A4B4C"/>
<path transform="translate(635,816)" d="m0 0m-1 2 1 4-4 4-1 7-1-3h-2l1-7 4-2z" fill="#B8BAB9"/>
<path transform="translate(788,804)" d="m0 0h10l11 1v1l-13 1-9-1z" fill="#E0E1E0"/>
<path transform="translate(504,790)" d="m0 0h2v2h5l5 2v2h-7l-5-3-4-2z" fill="#DDDEDD"/>
<path transform="translate(638,422)" d="m0 0 4 1 4 3 13 4v1l-9-1-9-4z" fill="#D1F3F3"/>
<path transform="translate(837,418)" d="m0 0 6 3 4 7-1 2-9-8z" fill="#D1D5D5"/>
<path transform="translate(552,417)" d="m0 0v3l-4 4-2 4-1 10-2-4 1-7 5-8z" fill="#D6F5F5"/>
<path transform="translate(1012,344)" d="m0 0h6v5l-5 2-2-3z" fill="#B6D3D4"/>
<path transform="translate(564,218)" d="m0 0h7l6 3 3 5v3h-2l-2-5-4-3-10-1z" fill="#D4F4F4"/>
<path transform="translate(742,107)" d="m0 0h1l1 8 5 6 7 1v1h-8l-1 3-2-5-3-4z" fill="#CAF1F1"/>
<path transform="translate(923,896)" d="m0 0 3 1-1 1h12l-2 1v2h-8l-7-1 1-2h2z" fill="#BABCBA"/>
<path transform="translate(551,886)" d="m0 0 4 1 7 3v2h-2l-1 2-4-3-6-2v-2z" fill="#40332F"/>
<path transform="translate(969,883)" d="m0 0h12l6 2v1h-11l-7-2z" fill="#CFD0D0"/>
<path transform="translate(270,868)" d="m0 0h14v1l-9 2h-12l3-2z" fill="#F8F8F7"/>
<path transform="translate(875,862)" d="m0 0 9 1 10 2v1l-10-1v2l-9-1 4-2z" fill="#C2C4C3"/>
<path transform="translate(400,845)" d="m0 0h7l2 2-6 2-8-1v-2z" fill="#C7C8C8"/>
<path transform="translate(626,830)" d="m0 0h3l-1 7-2 3h-2l-1-5z" fill="#C3C2BD"/>
<path transform="translate(620,835)" d="m0 0 5 5-1 3h-2l-1 3-3-3 1-6z" fill="#BDBEBC"/>
<path transform="translate(511,836)" d="m0 0h13l4 1v2l-17-1z" fill="#CACBCB"/>
<path transform="translate(477,812)" d="m0 0h3v2h4v2h-12l-2-3z" fill="#211C1B"/>
<path transform="translate(707,757)" d="m0 0h2v3l4 1-9 3v-2l-4 1 4-4z" fill="#3F3D3C"/>
<path transform="translate(505,754)" d="m0 0 11 6 3 2v2l-4-1-12-7z" fill="#C2C1BA"/>
<path transform="translate(583,410)" d="m0 0h4v3l-8 5h-3l2-4z" fill="#C6D9DB"/>
<path transform="translate(882,297)" d="m0 0 3 4 5 12-1 3-6-12z" fill="#D3F2F3"/>
<path transform="translate(951,249)" d="m0 0 2 1-8 11-6 7-1-3 12-14z" fill="#BABCBC"/>
<path transform="translate(594,249)" d="m0 0 4 1 10 4 3 2v2l-9-3-8-5z" fill="#BABCBC"/>
<path transform="translate(581,241)" d="m0 0 7 1 3 5-7-1-4-4z" fill="#C6DBDC"/>
<path transform="translate(764,116)" d="m0 0 1 2-5 5-2 1h-6l-1 5h-1v-5l9-4z" fill="#D7F3F4"/>
<path transform="translate(1080,909)" d="m0 0 1 4h3l1 3 6 2-1 2h-8l2-1-4-5z" fill="#C0C0BA"/>
<path transform="translate(275,896)" d="m0 0h17v1l-15 1-1 1h-12v-1z" fill="#E0E1E0"/>
<path transform="translate(984,883)" d="m0 0h11l9 2v1h-14l-6-2z" fill="#272727"/>
<path transform="translate(253,870)" d="m0 0h2v3l-8 2h-10v-2l12-1z" fill="#E3E4E3"/>
<path transform="translate(347,867)" d="m0 0 7 1-4 3-7 2h-5l2-2 6-1z" fill="#464646"/>
<path transform="translate(305,858)" d="m0 0 3 2-12 2-5 1v-2h2v-2z" fill="#181413"/>
<path transform="translate(530,849)" d="m0 0 5 1 8 3-1 2h-6v-3l-8-1z" fill="#464848"/>
<path transform="translate(730,810)" d="m0 0h7l2 2-3 1h-14l1-2z" fill="#3B3D3D"/>
<path transform="translate(386,806)" d="m0 0h8v2h9v1h-11l-16-1v-1z" fill="#555656"/>
<path transform="translate(859,646)" d="m0 0 3 1 2 2-5 2-9 1v-2l3-2z" fill="#DDDFDE"/>
<path transform="translate(919,285)" d="m0 0 2 1v3l8 1h3v2h-12l-3-4v-2z" fill="#C3CFD0"/>
<path transform="translate(538,885)" d="m0 0 1 2h5l-1 2h-14l-1-3z" fill="#1E1918"/>
<path transform="translate(325,864)" d="m0 0m-6 1h6v2l-10 2h-6l1-2z" fill="#160F0D"/>
<path transform="translate(348,855)" d="m0 0h10v2l-5 1h-13v-1z" fill="#E1E2E1"/>
<path transform="translate(481,844)" d="m0 0 13 1 2 2-14 1v-2l-2-1z" fill="#1E2A2C"/>
<path transform="translate(585,840)" d="m0 0 7 6v3l-5-2-5-6z" fill="#3E3E3D"/>
<path transform="translate(826,838)" d="m0 0 14 3 1 2-19-2 1-2z" fill="#E0E1E0"/>
<path transform="translate(426,838)" d="m0 0h22v1l-15 1-8 1-1-2z" fill="#160F0D"/>
<path transform="translate(548,814)" d="m0 0 5 1 1 3-3 3-6-2v-2h3z" fill="#1E2020"/>
<path transform="translate(516,812)" d="m0 0 10 3 2 2-3 1h-2l1 2-8-2 3-2v-2l-3-1z" fill="#3B4141"/>
<path transform="translate(507,812)" d="m0 0h9l4 4v1h-5l-8-4z" fill="#1C1E1D"/>
<path transform="translate(698,809)" d="m0 0h2l-1 3h-2v2l-8 3-3-1h2v-2z" fill="#464646"/>
<path transform="translate(722,808)" d="m0 0h15v1l-9 1-1 1h-11l2-2z" fill="#F0F0EF"/>
<path transform="translate(728,739)" d="m0 0m-1 1m-1 1m-1 1 3 2-16 8v-3l5-3 7-3z" fill="#C6BFB2"/>
<path transform="translate(867,604)" d="m0 0m-1 1 2 3-10 5-4-2 3-2z" fill="#DEDFDF"/>
<path transform="translate(737,451)" d="m0 0h2v5l-1 1h-6v-5z" fill="#FDFDFC"/>
<path transform="translate(233,900)" d="m0 0 19 1v1l-6 1h-13z" fill="#BDBDBA"/>
<path transform="translate(944,899)" d="m0 0h7l4 2v2l-13-1v-2z" fill="#BABCBB"/>
<path transform="translate(962,885)" d="m0 0h7l4 1 7 1v2l-17-1z" fill="#181513"/>
<path transform="translate(905,876)" d="m0 0 14 2-3 2h-10l-2-3z" fill="#1E2829"/>
<path transform="translate(903,870)" d="m0 0h9l1 1 9 2-3 1-16-2z" fill="#DCDDDC"/>
<path transform="translate(244,843)" d="m0 0h5v1l6 1v1l-6 1h-10v-2z" fill="#4D4E4E"/>
<path transform="translate(579,833)" d="m0 0 6 5v3l-5-1-3-2z" fill="#343737"/>
<path transform="translate(688,825)" d="m0 0h2l-1 3-10 3-5 1 3-4h5l2-2z" fill="#525353"/>
<path transform="translate(546,822)" d="m0 0 8 1 5 3v2l-7-1-6-4z" fill="#CFD0CF"/>
<path transform="translate(562,817)" d="m0 0 4 1 3 3 2 1v2h-5l-7-5z" fill="#D7D8D8"/>
<path transform="translate(850,813)" d="m0 0h16l6 2v1l-18-1z" fill="#DADBDB"/>
<path transform="translate(359,809)" d="m0 0 1 2h8v1l-7 1h-14v-1z" fill="#717373"/>
<path transform="translate(660,790)" d="m0 0 3 1-3 4h-2l-2 5-3 3h-2v-3l5-5z" fill="#CFCFCB"/>
<path transform="translate(655,446)" d="m0 0v3l-13 14v-3l7-8z" fill="#BABCBC"/>
<path transform="translate(831,353)" d="m0 0h1l-1 9-2 3-2 4-2 1 3-9z" fill="#D5F5F5"/>
<path transform="translate(938,279)" d="m0 0h1l-1 9-2 2-3-1 3-9z" fill="#D3DEDE"/>
<path transform="translate(313,855)" d="m0 0 4 1-11 3h-13v-1z" fill="#414546"/>
<path transform="translate(343,852)" d="m0 0h2v2l-6 2h-10l1-2z" fill="#171210"/>
<path transform="translate(975,842)" d="m0 0 9 2 3 3-10 1v-2l2-1-4-1z" fill="#313636"/>
<path transform="translate(950,834)" d="m0 0h8l7 2v3l-15-3z" fill="#CFD1D0"/>
<path transform="translate(502,833)" d="m0 0 17 2v1l-15 1-3-2z" fill="#BABCBC"/>
<path transform="translate(879,821)" d="m0 0h9l4 2h-7l-1 3-4-1z" fill="#2A3030"/>
<path transform="translate(713,810)" d="m0 0 10 1-4 2-9 2-4-1h3l1-3z" fill="#CDCECE"/>
<path transform="translate(655,206)" d="m0 0 2 1-1 8-5 5-1-3 4-8z" fill="#BCEDED"/>
<path transform="translate(759,154)" d="m0 0 1 2 4 1 2 1v2l4 1v3l-9-5-4-4z" fill="#D0F1F1"/>
<path transform="translate(742,143)" d="m0 0h3v4h-9l-4 2-4-1 5-3h9z" fill="#D5F3F4"/>
<path transform="translate(987,885)" d="m0 0 13 1v2h-12l-6-1v-1z" fill="#C3C4C4"/>
<path transform="translate(930,881)" d="m0 0 4 1 7 2v1l-13-1-9-1v-1z" fill="#454747"/>
<path transform="translate(918,869)" d="m0 0 10 1 7 2v2l-11-1-6-2z" fill="#293030"/>
<path transform="translate(938,869)" d="m0 0 7 1 4 2-9 1-7-2v-1z" fill="#C8CAC9"/>
<path transform="translate(804,868)" d="m0 0h16l1 1 8 1v1h-10l-15-2z" fill="#EEEFEE"/>
<path transform="translate(228,864)" d="m0 0h12v1l-9 2h-14v-1l10-1z" fill="#EFF0EF"/>
<path transform="translate(668,860)" d="m0 0h5l-1 4-10 1 3-4z" fill="#353C3D"/>
<path transform="translate(787,855)" d="m0 0 8 1-1 2 3 2h-9l-6-1v-1l5-1z" fill="#2C3435"/>
<path transform="translate(646,833)" d="m0 0 2 1-1 3h-3v2l-6 3 1-4 4-4z" fill="#201D1C"/>
<path transform="translate(515,831)" d="m0 0 6 1 10 2-1 2h-6v-2h-7l-2-1z" fill="#BFC1C1"/>
<path transform="translate(591,821)" d="m0 0h2l3 5 1 6-5-3-1-2z" fill="#8B8D8C"/>
<path transform="translate(537,821)" d="m0 0 6 1 5 2-4 1-2-1v2l-6-1z" fill="#323434"/>
<path transform="translate(736,806)" d="m0 0 7 1-4 3-12 1 1-2z" fill="#CFD1D0"/>
<path transform="translate(763,744)" d="m0 0h8v2l-7 1-1 1h-8l2-2z" fill="#444"/>
<path transform="translate(545,428)" d="m0 0h1l1 10 4 5 3 2v2l-5-2-4-5z" fill="#CDF1F1"/>
<path transform="translate(918,273)" d="m0 0v3l1 2v8h-3l-1-7 2-5z" fill="#D0E0E1"/>
<path transform="translate(1022,898)" d="m0 0h8l2 1-1 2-3-1 1 4-4-1-6-1v-1l6-1z" fill="#CAC5BB"/>
<path transform="translate(345,896)" d="m0 0h7l-1 3h-3l-1 2-5-1v-2z" fill="#211C1B"/>
<path transform="translate(960,877)" d="m0 0 8 1 3 2h-11l-8-1v-1z" fill="#3D3D3D"/>
<path transform="translate(892,863)" d="m0 0 16 2v1l-10 1-5-2z" fill="#404444"/>
<path transform="translate(595,844)" d="m0 0h3l6 9v2h-2l-5-5-2-1z" fill="#E0E1E0"/>
<path transform="translate(654,821)" d="m0 0 3 1-5 6-5 1 2-4z" fill="#E1E2E1"/>
<path transform="translate(883,639)" d="m0 0 4 1v2l-10 2-2-2 5-2z" fill="#E0E1E0"/>
<path transform="translate(911,631)" d="m0 0h6l2 3-9 1h-9l1-2 8-1z" fill="#E0E1E0"/>
<path transform="translate(707,399)" d="m0 0h8l4 1v2h-12z" fill="#D0F3F3"/>
<path transform="translate(394,891)" d="m0 0h5l-1 3-2 1h-9l1-2z" fill="#160F0D"/>
<path transform="translate(693,816)" d="m0 0m-3 1h3v2l-12 4-1 1h-5l4-2 5-3z" fill="#E0E1E0"/>
<path transform="translate(834,817)" d="m0 0h19l1 3-15-1-5-1z" fill="#434747"/>
<path transform="translate(533,810)" d="m0 0h6l7 5-2 1-10-3z" fill="#3E3E3E"/>
<path transform="translate(832,808)" d="m0 0 9 1v1l-14 1-7-1v-1z" fill="#CED0CF"/>
<path transform="translate(568,803)" d="m0 0 4 2 5 6-1 2-4-2-4-5z" fill="#DCDDDC"/>
<path transform="translate(446,787)" d="m0 0h12l3 3-14-1z" fill="#232C2C"/>
<path transform="translate(738,785)" d="m0 0h11l-1 2-13 1v-2z" fill="#E6E7E6"/>
<path transform="translate(872,717)" d="m0 0 13 4 6 2v1h-6l-7-3-7-2z" fill="#E0E1E0"/>
<path transform="translate(651,712)" d="m0 0 2 2h-2l-2 6-3 4-3-1 3-5 2-4z" fill="#E0E1E0"/>
<path transform="translate(823,214)" d="m0 0 2 3v12l-2-1-1-12z" fill="#C0EEEE"/>
<path transform="translate(209,881)" d="m0 0h11v2l-14 1v-2z" fill="#252828"/>
<path transform="translate(807,858)" d="m0 0h2v2l4 1 2 2-13-1-5-1v-1h7l4 1z" fill="#303637"/>
<path transform="translate(576,845)" d="m0 0 4 1 7 4v3l-5-2-6-4z" fill="#CFD0D0"/>
<path transform="translate(910,825)" d="m0 0h9l6 2v1h-11l-4-2z" fill="#D8D9D9"/>
<path transform="translate(351,808)" d="m0 0h6l2 2-4 1h-11l2-2z" fill="#3E4142"/>
<path transform="translate(490,807)" d="m0 0 10 1-1 3h-8z" fill="#1E2A2B"/>
<path transform="translate(725,748)" d="m0 0 6 1 1 3-7 2-1-5z" fill="#423936"/>
<path transform="translate(731,742)" d="m0 0m-3 1h3v2l-3 2h-3v2h-5v-2z" fill="#E6E7E5"/>
<path transform="translate(899,341)" d="m0 0 1 3-1 4 3 6-1 2-3-5-4-2h2l-1-3 3-3z" fill="#DBF7F7"/>
<path transform="translate(657,302)" d="m0 0h1l2 9-9 1 5-5z" fill="#D2F3F3"/>
<path transform="translate(341,892)" d="m0 0h6l1 2-8 2-3-1-1-2z" fill="#1F1A19"/>
<path transform="translate(658,888)" d="m0 0h6l1 4h-3v3h-2v-3l-2-1z" fill="#C5C1B6"/>
<path transform="translate(252,864)" d="m0 0h8v1l-7 1 1 2-2 1h-6l1-3z" fill="#1F2223"/>
<path transform="translate(394,842)" d="m0 0h12l-1 2-10 1-2-2z" fill="#191817"/>
<path transform="translate(879,817)" d="m0 0 8 1 2 2 3 2-9-1-4-1z" fill="#CDCFCE"/>
<path transform="translate(543,812)" d="m0 0 9 1 1 2h-5l2 3h-3l-3-2 1-1-2-1z" fill="#2E2927"/>
<path transform="translate(500,808)" d="m0 0 6 1-3 2v2l2 1-12-2v-1l6-1z" fill="#414546"/>
<path transform="translate(563,802)" d="m0 0 4 2 3 3 1 5-7-6z" fill="#292B2B"/>
<path transform="translate(768,731)" d="m0 0 3 1-7 3-10 3-2-1 12-5z" fill="#BDBEBB"/>
<path transform="translate(587,508)" d="m0 0 1 4h2l3 6 2 1v2l-4-2-4-4z" fill="#C0CCCD"/>
<path transform="translate(853,441)" d="m0 0 3 2-2 13-2-1v-8z" fill="#D9F6F6"/>
<path transform="translate(876,284)" d="m0 0 3 4 3 6v6l-2-3-4-9z" fill="#D0F2F2"/>
<path transform="translate(923,270)" d="m0 0h9v1l-7 1-5 4-3 3 1-4z" fill="#BABCBC"/>
<path transform="translate(450,880)" d="m0 0 4 1-3 2h-17v-1z" fill="#283133"/>
<path transform="translate(904,873)" d="m0 0 7 1 7 2-4 2-10-2z" fill="#17100F"/>
<path transform="translate(327,859)" d="m0 0h8l-3 2-6 2h-5l1-3z" fill="#E0E1E0"/>
<path transform="translate(556,852)" d="m0 0 4 2-1 5-9-2v-1h6z" fill="#B2B4B4"/>
<path transform="translate(366,851)" d="m0 0 14 1v1l-11 1-8-1v-1z" fill="#BABCBC"/>
<path transform="translate(311,849)" d="m0 0 12 1v1l-11 1-6-1v-1z" fill="#555656"/>
<path transform="translate(445,844)" d="m0 0 13 1v1l-8 1h-9z" fill="#211C1B"/>
<path transform="translate(528,811)" d="m0 0h5l4 3v3l-7-2z" fill="#2D3738"/>
<path transform="translate(544,806)" d="m0 0 6 2 2 1-1 3-7-2z" fill="#EAEAE9"/>
<path transform="translate(475,741)" d="m0 0 5 1v2h5v2l2 1h-6l-6-4z" fill="#BABCBC"/>
<path transform="translate(773,672)" d="m0 0h10v1l-9 2-5 1-1-3z" fill="#FDFDFC"/>
<path transform="translate(170,901)" d="m0 0 1 2-1 2h7v2h-10l2-5z" fill="#C6C1B5"/>
<path transform="translate(657,894)" d="m0 0h3v8l-2 2-2-7z" fill="#40332E"/>
<path transform="translate(1121,853)" d="m0 0 4 1 6 1 2 2-3 1-10-2z" fill="#E3E4E3"/>
<path transform="translate(518,829)" d="m0 0 12 2-4 2-7-1-5-1z" fill="#E0E1E0"/>
<path transform="translate(840,814)" d="m0 0h10l1 1 7 1v1l-9 1-9-3z" fill="#1A1716"/>
<path transform="translate(641,806)" d="m0 0h2l-1 5-3 5h-2l-1 2 1-4z" fill="#4E4A48"/>
<path transform="translate(329,808)" d="m0 0h10v1l-6 2h-10l4-2z" fill="#E0E1E0"/>
<path transform="translate(689,769)" d="m0 0 1 2 4-1v2l-7 3v-2l-4 1 3-3z" fill="#3A3B3B"/>
<path transform="translate(735,740)" d="m0 0m-1 1m-2 1h8l-2 2-8 3-5 1 4-3h2z" fill="#CAC9C6"/>
<path transform="translate(679,735)" d="m0 0h2v3h-2l-2 4-4 2-1 2v-3z" fill="#BBBDBB"/>
<path transform="translate(767,658)" d="m0 0m-2 1h2l-1 4-6 4h-2l2-4 2-2h3z" fill="#DDDEDD"/>
<path transform="translate(640,461)" d="m0 0 2 4h-2l-1 4-1 2-2-1v-2l-1-2h2v-2h2z" fill="#CFE3E4"/>
<path transform="translate(708,431)" d="m0 0 4 2 6 4 2 3h-3l-9-8z" fill="#C8F1F1"/>
<path transform="translate(889,316)" d="m0 0 2 4-7 2-3 1-5-2 4-2 9 1z" fill="#BFEBEC"/>
<path transform="translate(744,134)" d="m0 0 2 3v5l-3 2-1-1v-6h2z" fill="#D0E6E8"/>
<path transform="translate(749,99)" d="m0 0h6v1h-5v2l-5 3-1 2h-2l1-4z" fill="#D5F4F4"/>
<path transform="translate(352,897)" d="m0 0h12v2l-11 1-2-2z" fill="#16100E"/>
<path transform="translate(924,877)" d="m0 0h9l4 2h-11l3 3h-5l-1-4z" fill="#313434"/>
<path transform="translate(242,862)" d="m0 0m-5 1 11 1v1l-17 2 3-2z" fill="#C5C7C7"/>
<path transform="translate(493,825)" d="m0 0 10 1v1l-12 1-6-1v-1z" fill="#E0E1E0"/>
<path transform="translate(353,823)" d="m0 0 12 1v1l-12 1-5-1v-1z" fill="#BABCBC"/>
<path transform="translate(560,819)" d="m0 0 5 3-3 2h-2l1 3-6-2 3-1 1-2z" fill="#363D3E"/>
<path transform="translate(539,777)" d="m0 0 6 4v2h-5l-3-5z" fill="#DEDFDE"/>
<path transform="translate(685,773)" d="m0 0h2l-1 4-4 2-3-1h2v-4z" fill="#2C2C2C"/>
<path transform="translate(690,765)" d="m0 0 3 2-7 5h-3v-2z" fill="#D1D2D1"/>
<path transform="translate(658,431)" d="m0 0 6 1 4 2h-2v2h-2v3l-2-1-1-4z" fill="#D5F4F4"/>
<path transform="translate(845,425)" d="m0 0 3 2v3l3 1-2 2v3l-6-8h3z" fill="#DBE4E4"/>
<path transform="translate(619,384)" d="m0 0 1 2 2 1-5 4-4-2z" fill="#C7E9EC"/>
<path transform="translate(662,152)" d="m0 0 2 2 3 6-1 3v-2h-3l-3-7h2z" fill="#CFD1D0"/>
</svg>
